STARTFONT 2.1
COMMENT
COMMENT Converted from OpenType font "NotoSansCherokee-Regular.ttf" by "otf2bdf 3.0".
COMMENT
FONT -FreeType-Noto Sans Cherokee-Medium-R-Normal--14-100-100-100-P-75-ISO10646-1
SIZE 10 100 100
FONTBOUNDINGBOX 25 19 -7 -4
STARTPROPERTIES 19
FOUNDRY "FreeType"
FAMILY_NAME "Noto Sans Cherokee"
WEIGHT_NAME "Medium"
SLANT "R"
SETWIDTH_NAME "Normal"
ADD_STYLE_NAME ""
PIXEL_SIZE 14
POINT_SIZE 100
RESOLUTION_X 100
RESOLUTION_Y 100
SPACING "P"
AVERAGE_WIDTH 75
CHARSET_REGISTRY "ISO10646"
CHARSET_ENCODING "1"
FONT_ASCENT 14
FONT_DESCENT 4
COPYRIGHT "Copyright 2022 The Noto Project Authors (https://github.com/notofonts/cherokee)"
_OTF_FONTFILE "NotoSansCherokee-Regular.ttf"
_OTF_PSNAME "NotoSansCherokee-Regular"
ENDPROPERTIES
CHARS 511
STARTCHAR 0000
ENCODING 0
SWIDTH 0 0
DWIDTH 0 0
BBX 0 0 0 0
BITMAP
ENDCHAR
STARTCHAR 000D
ENCODING 13
SWIDTH 288 0
DWIDTH 4 0
BBX 0 0 0 0
BITMAP
ENDCHAR
STARTCHAR 0020
ENCODING 32
SWIDTH 288 0
DWIDTH 4 0
BBX 0 0 0 0
BITMAP
ENDCHAR
STARTCHAR 0021
ENCODING 33
SWIDTH 288 0
DWIDTH 4 0
BBX 2 10 1 0
BITMAP
C0
C0
C0
80
80
80
80
00
C0
C0
ENDCHAR
STARTCHAR 0022
ENCODING 34
SWIDTH 432 0
DWIDTH 6 0
BBX 4 3 1 7
BITMAP
B0
90
90
ENDCHAR
STARTCHAR 0023
ENCODING 35
SWIDTH 648 0
DWIDTH 9 0
BBX 9 10 0 0
BITMAP
1200
1200
1200
7F80
1200
2400
FF00
2400
2400
2400
ENDCHAR
STARTCHAR 0024
ENCODING 36
SWIDTH 576 0
DWIDTH 8 0
BBX 6 12 1 -1
BITMAP
20
78
EC
A0
E0
70
2C
24
A4
F8
20
20
ENDCHAR
STARTCHAR 0025
ENCODING 37
SWIDTH 864 0
DWIDTH 12 0
BBX 10 10 1 0
BITMAP
E100
9200
9200
9580
9640
EA40
1A40
1240
2240
6180
ENDCHAR
STARTCHAR 0026
ENCODING 38
SWIDTH 720 0
DWIDTH 10 0
BBX 9 10 1 0
BITMAP
7800
4C00
4C00
6800
3000
D980
8D00
8700
C700
7980
ENDCHAR
STARTCHAR 0027
ENCODING 39
SWIDTH 216 0
DWIDTH 3 0
BBX 1 3 1 7
BITMAP
80
80
80
ENDCHAR
STARTCHAR 0028
ENCODING 40
SWIDTH 288 0
DWIDTH 4 0
BBX 3 13 1 -3
BITMAP
60
40
80
80
80
80
80
80
80
80
80
40
60
ENDCHAR
STARTCHAR 0029
ENCODING 41
SWIDTH 288 0
DWIDTH 4 0
BBX 4 13 0 -3
BITMAP
C0
60
20
20
20
30
30
30
20
20
20
60
C0
ENDCHAR
STARTCHAR 002A
ENCODING 42
SWIDTH 576 0
DWIDTH 8 0
BBX 6 7 1 4
BITMAP
30
20
AC
78
70
D8
48
ENDCHAR
STARTCHAR 002B
ENCODING 43
SWIDTH 576 0
DWIDTH 8 0
BBX 6 7 1 2
BITMAP
30
30
30
FC
30
30
30
ENDCHAR
STARTCHAR 002C
ENCODING 44
SWIDTH 288 0
DWIDTH 4 0
BBX 2 4 1 -2
BITMAP
C0
80
80
80
ENDCHAR
STARTCHAR 002D
ENCODING 45
SWIDTH 360 0
DWIDTH 5 0
BBX 3 1 1 4
BITMAP
E0
ENDCHAR
STARTCHAR 002E
ENCODING 46
SWIDTH 288 0
DWIDTH 4 0
BBX 2 2 1 0
BITMAP
C0
C0
ENDCHAR
STARTCHAR 002F
ENCODING 47
SWIDTH 360 0
DWIDTH 5 0
BBX 5 10 0 0
BITMAP
08
18
10
10
20
20
60
40
40
C0
ENDCHAR
STARTCHAR 0030
ENCODING 48
SWIDTH 576 0
DWIDTH 8 0
BBX 6 10 1 0
BITMAP
78
CC
84
84
84
84
84
84
CC
78
ENDCHAR
STARTCHAR 0031
ENCODING 49
SWIDTH 576 0
DWIDTH 8 0
BBX 4 10 1 0
BITMAP
30
70
90
10
10
10
10
10
10
10
ENDCHAR
STARTCHAR 0032
ENCODING 50
SWIDTH 576 0
DWIDTH 8 0
BBX 6 10 1 0
BITMAP
78
8C
04
04
08
18
30
60
C0
FC
ENDCHAR
STARTCHAR 0033
ENCODING 51
SWIDTH 576 0
DWIDTH 8 0
BBX 6 10 1 0
BITMAP
78
8C
04
0C
70
0C
04
04
8C
F8
ENDCHAR
STARTCHAR 0034
ENCODING 52
SWIDTH 576 0
DWIDTH 8 0
BBX 8 10 0 0
BITMAP
04
0C
14
24
24
44
FF
04
04
04
ENDCHAR
STARTCHAR 0035
ENCODING 53
SWIDTH 576 0
DWIDTH 8 0
BBX 6 10 1 0
BITMAP
FC
80
80
F8
0C
04
04
04
8C
F8
ENDCHAR
STARTCHAR 0036
ENCODING 54
SWIDTH 576 0
DWIDTH 8 0
BBX 6 10 1 0
BITMAP
3C
40
80
B8
CC
84
84
84
CC
78
ENDCHAR
STARTCHAR 0037
ENCODING 55
SWIDTH 576 0
DWIDTH 8 0
BBX 6 10 1 0
BITMAP
FC
04
0C
08
18
10
10
20
20
40
ENDCHAR
STARTCHAR 0038
ENCODING 56
SWIDTH 576 0
DWIDTH 8 0
BBX 6 10 1 0
BITMAP
78
CC
84
CC
70
58
84
84
84
78
ENDCHAR
STARTCHAR 0039
ENCODING 57
SWIDTH 576 0
DWIDTH 8 0
BBX 6 10 1 0
BITMAP
78
CC
84
84
8C
74
04
0C
18
F0
ENDCHAR
STARTCHAR 003A
ENCODING 58
SWIDTH 288 0
DWIDTH 4 0
BBX 2 8 1 0
BITMAP
C0
C0
00
00
00
00
C0
C0
ENDCHAR
STARTCHAR 003B
ENCODING 59
SWIDTH 288 0
DWIDTH 4 0
BBX 3 10 0 -2
BITMAP
60
60
00
00
00
00
60
40
40
C0
ENDCHAR
STARTCHAR 003C
ENCODING 60
SWIDTH 576 0
DWIDTH 8 0
BBX 6 7 1 2
BITMAP
04
0C
30
C0
C0
30
0C
ENDCHAR
STARTCHAR 003D
ENCODING 61
SWIDTH 576 0
DWIDTH 8 0
BBX 6 4 1 3
BITMAP
FC
00
00
FC
ENDCHAR
STARTCHAR 003E
ENCODING 62
SWIDTH 576 0
DWIDTH 8 0
BBX 6 7 1 2
BITMAP
80
C0
30
0C
0C
30
C0
ENDCHAR
STARTCHAR 003F
ENCODING 63
SWIDTH 432 0
DWIDTH 6 0
BBX 6 10 0 0
BITMAP
78
8C
04
08
18
20
20
00
20
20
ENDCHAR
STARTCHAR 0040
ENCODING 64
SWIDTH 936 0
DWIDTH 13 0
BBX 11 11 1 -1
BITMAP
1F00
20C0
4F40
9120
9120
9320
9340
9DC0
8000
6080
3F00
ENDCHAR
STARTCHAR 0041
ENCODING 65
SWIDTH 648 0
DWIDTH 9 0
BBX 9 10 0 0
BITMAP
0800
1400
1400
1400
2200
2200
7F00
4100
4100
8180
ENDCHAR
STARTCHAR 0042
ENCODING 66
SWIDTH 648 0
DWIDTH 9 0
BBX 7 10 1 0
BITMAP
FC
C6
C2
C6
F8
C6
C2
C2
C6
FC
ENDCHAR
STARTCHAR 0043
ENCODING 67
SWIDTH 648 0
DWIDTH 9 0
BBX 7 10 1 0
BITMAP
3E
62
C0
80
80
80
80
C0
60
3E
ENDCHAR
STARTCHAR 0044
ENCODING 68
SWIDTH 720 0
DWIDTH 10 0
BBX 8 10 1 0
BITMAP
FC
C6
C3
C1
C1
C1
C1
C3
C6
FC
ENDCHAR
STARTCHAR 0045
ENCODING 69
SWIDTH 576 0
DWIDTH 8 0
BBX 6 10 1 0
BITMAP
FC
C0
C0
C0
FC
C0
C0
C0
C0
FC
ENDCHAR
STARTCHAR 0046
ENCODING 70
SWIDTH 504 0
DWIDTH 7 0
BBX 6 10 1 0
BITMAP
FC
C0
C0
C0
FC
C0
C0
C0
C0
C0
ENDCHAR
STARTCHAR 0047
ENCODING 71
SWIDTH 720 0
DWIDTH 10 0
BBX 8 10 1 0
BITMAP
3F
61
C0
80
87
81
81
C1
61
3F
ENDCHAR
STARTCHAR 0048
ENCODING 72
SWIDTH 720 0
DWIDTH 10 0
BBX 8 10 1 0
BITMAP
C1
C1
C1
C1
FF
C1
C1
C1
C1
C1
ENDCHAR
STARTCHAR 0049
ENCODING 73
SWIDTH 360 0
DWIDTH 5 0
BBX 3 10 1 0
BITMAP
E0
40
40
40
40
40
40
40
40
E0
ENDCHAR
STARTCHAR 004A
ENCODING 74
SWIDTH 288 0
DWIDTH 4 0
BBX 4 13 -1 -3
BITMAP
30
30
30
30
30
30
30
30
30
30
30
20
E0
ENDCHAR
STARTCHAR 004B
ENCODING 75
SWIDTH 648 0
DWIDTH 9 0
BBX 8 10 1 0
BITMAP
C3
C4
C8
D0
F0
D0
C8
CC
C6
C3
ENDCHAR
STARTCHAR 004C
ENCODING 76
SWIDTH 504 0
DWIDTH 7 0
BBX 6 10 1 0
BITMAP
C0
C0
C0
C0
C0
C0
C0
C0
C0
FC
ENDCHAR
STARTCHAR 004D
ENCODING 77
SWIDTH 936 0
DWIDTH 13 0
BBX 10 10 1 0
BITMAP
C0C0
A0C0
A0C0
F140
D140
D340
DA40
CA40
CC40
C440
ENDCHAR
STARTCHAR 004E
ENCODING 78
SWIDTH 792 0
DWIDTH 11 0
BBX 8 10 1 0
BITMAP
C1
E1
A1
D1
D9
C9
C5
C7
C3
C3
ENDCHAR
STARTCHAR 004F
ENCODING 79
SWIDTH 792 0
DWIDTH 11 0
BBX 9 10 1 0
BITMAP
3E00
6300
C180
8080
8080
8080
8080
C180
6300
3E00
ENDCHAR
STARTCHAR 0050
ENCODING 80
SWIDTH 576 0
DWIDTH 8 0
BBX 7 10 1 0
BITMAP
F8
C4
C6
C6
C4
F8
C0
C0
C0
C0
ENDCHAR
STARTCHAR 0051
ENCODING 81
SWIDTH 792 0
DWIDTH 11 0
BBX 9 12 1 -2
BITMAP
3E00
6300
C180
8080
8080
8080
8080
C180
6300
3E00
0600
0380
ENDCHAR
STARTCHAR 0052
ENCODING 82
SWIDTH 648 0
DWIDTH 9 0
BBX 8 10 1 0
BITMAP
FC
C4
C6
C6
C4
F8
C8
CC
C6
C3
ENDCHAR
STARTCHAR 0053
ENCODING 83
SWIDTH 576 0
DWIDTH 8 0
BBX 6 10 1 0
BITMAP
7C
C4
80
80
60
18
04
04
8C
F8
ENDCHAR
STARTCHAR 0054
ENCODING 84
SWIDTH 576 0
DWIDTH 8 0
BBX 8 10 0 0
BITMAP
FF
18
18
18
18
18
18
18
18
18
ENDCHAR
STARTCHAR 0055
ENCODING 85
SWIDTH 720 0
DWIDTH 10 0
BBX 8 10 1 0
BITMAP
C1
C1
C1
C1
C1
C1
C1
C1
42
3C
ENDCHAR
STARTCHAR 0056
ENCODING 86
SWIDTH 576 0
DWIDTH 8 0
BBX 8 10 0 0
BITMAP
81
41
43
62
26
24
34
1C
18
18
ENDCHAR
STARTCHAR 0057
ENCODING 87
SWIDTH 936 0
DWIDTH 13 0
BBX 13 10 0 0
BITMAP
C218
4710
4510
4510
6D30
28A0
28A0
28A0
38E0
1040
ENDCHAR
STARTCHAR 0058
ENCODING 88
SWIDTH 576 0
DWIDTH 8 0
BBX 8 10 0 0
BITMAP
C3
62
24
1C
18
18
34
26
42
C3
ENDCHAR
STARTCHAR 0059
ENCODING 89
SWIDTH 576 0
DWIDTH 8 0
BBX 8 10 0 0
BITMAP
C3
42
66
24
38
18
18
18
18
18
ENDCHAR
STARTCHAR 005A
ENCODING 90
SWIDTH 576 0
DWIDTH 8 0
BBX 6 10 1 0
BITMAP
FC
04
08
18
10
20
60
40
80
FC
ENDCHAR
STARTCHAR 005B
ENCODING 91
SWIDTH 360 0
DWIDTH 5 0
BBX 3 13 1 -3
BITMAP
E0
80
80
80
80
80
80
80
80
80
80
80
E0
ENDCHAR
STARTCHAR 005C
ENCODING 92
SWIDTH 360 0
DWIDTH 5 0
BBX 5 10 0 0
BITMAP
C0
40
40
60
20
20
10
10
18
08
ENDCHAR
STARTCHAR 005D
ENCODING 93
SWIDTH 360 0
DWIDTH 5 0
BBX 3 13 0 -3
BITMAP
E0
20
20
20
20
20
20
20
20
20
20
20
E0
ENDCHAR
STARTCHAR 005E
ENCODING 94
SWIDTH 576 0
DWIDTH 8 0
BBX 6 7 1 4
BITMAP
20
30
30
48
48
84
84
ENDCHAR
STARTCHAR 005F
ENCODING 95
SWIDTH 432 0
DWIDTH 6 0
BBX 6 1 0 -2
BITMAP
FC
ENDCHAR
STARTCHAR 0060
ENCODING 96
SWIDTH 288 0
DWIDTH 4 0
BBX 2 3 1 9
BITMAP
80
C0
40
ENDCHAR
STARTCHAR 0061
ENCODING 97
SWIDTH 576 0
DWIDTH 8 0
BBX 6 8 1 0
BITMAP
78
8C
04
7C
CC
8C
8C
F4
ENDCHAR
STARTCHAR 0062
ENCODING 98
SWIDTH 648 0
DWIDTH 9 0
BBX 7 11 1 0
BITMAP
80
80
80
B8
C4
C6
82
82
C6
C4
B8
ENDCHAR
STARTCHAR 0063
ENCODING 99
SWIDTH 504 0
DWIDTH 7 0
BBX 5 8 1 0
BITMAP
78
C0
80
80
80
80
C8
78
ENDCHAR
STARTCHAR 0064
ENCODING 100
SWIDTH 648 0
DWIDTH 9 0
BBX 6 11 1 0
BITMAP
04
04
04
7C
CC
84
84
84
84
C4
7C
ENDCHAR
STARTCHAR 0065
ENCODING 101
SWIDTH 576 0
DWIDTH 8 0
BBX 6 8 1 0
BITMAP
78
CC
84
FC
80
80
C4
7C
ENDCHAR
STARTCHAR 0066
ENCODING 102
SWIDTH 360 0
DWIDTH 5 0
BBX 5 11 0 0
BITMAP
38
20
20
F8
20
20
20
20
20
20
20
ENDCHAR
STARTCHAR 0067
ENCODING 103
SWIDTH 648 0
DWIDTH 9 0
BBX 6 12 1 -4
BITMAP
7C
CC
84
84
84
84
C4
7C
04
04
8C
F8
ENDCHAR
STARTCHAR 0068
ENCODING 104
SWIDTH 648 0
DWIDTH 9 0
BBX 7 11 1 0
BITMAP
80
80
80
BC
C4
C6
86
86
86
86
86
ENDCHAR
STARTCHAR 0069
ENCODING 105
SWIDTH 288 0
DWIDTH 4 0
BBX 2 11 1 0
BITMAP
C0
00
00
80
80
80
80
80
80
80
80
ENDCHAR
STARTCHAR 006A
ENCODING 106
SWIDTH 288 0
DWIDTH 4 0
BBX 4 15 -1 -4
BITMAP
30
00
00
20
20
20
20
20
20
20
20
20
20
20
E0
ENDCHAR
STARTCHAR 006B
ENCODING 107
SWIDTH 504 0
DWIDTH 7 0
BBX 6 11 1 0
BITMAP
80
80
80
8C
98
B0
A0
F0
98
88
84
ENDCHAR
STARTCHAR 006C
ENCODING 108
SWIDTH 288 0
DWIDTH 4 0
BBX 1 11 1 0
BITMAP
80
80
80
80
80
80
80
80
80
80
80
ENDCHAR
STARTCHAR 006D
ENCODING 109
SWIDTH 936 0
DWIDTH 13 0
BBX 11 8 1 0
BITMAP
B9C0
C660
C420
8420
8420
8420
8420
8420
ENDCHAR
STARTCHAR 006E
ENCODING 110
SWIDTH 648 0
DWIDTH 9 0
BBX 7 8 1 0
BITMAP
BC
C4
C6
86
86
86
86
86
ENDCHAR
STARTCHAR 006F
ENCODING 111
SWIDTH 576 0
DWIDTH 8 0
BBX 7 8 1 0
BITMAP
78
C4
86
86
86
86
C4
78
ENDCHAR
STARTCHAR 0070
ENCODING 112
SWIDTH 648 0
DWIDTH 9 0
BBX 7 12 1 -4
BITMAP
B8
C4
C6
82
82
C6
C4
B8
80
80
80
80
ENDCHAR
STARTCHAR 0071
ENCODING 113
SWIDTH 648 0
DWIDTH 9 0
BBX 6 12 1 -4
BITMAP
7C
CC
84
84
84
84
C4
7C
04
04
04
04
ENDCHAR
STARTCHAR 0072
ENCODING 114
SWIDTH 432 0
DWIDTH 6 0
BBX 5 8 1 0
BITMAP
B8
C0
C0
80
80
80
80
80
ENDCHAR
STARTCHAR 0073
ENCODING 115
SWIDTH 504 0
DWIDTH 7 0
BBX 5 8 1 0
BITMAP
78
88
80
E0
38
08
88
F0
ENDCHAR
STARTCHAR 0074
ENCODING 116
SWIDTH 360 0
DWIDTH 5 0
BBX 5 10 0 0
BITMAP
20
60
F8
60
60
60
60
60
60
38
ENDCHAR
STARTCHAR 0075
ENCODING 117
SWIDTH 648 0
DWIDTH 9 0
BBX 6 8 1 0
BITMAP
84
84
84
84
84
84
CC
7C
ENDCHAR
STARTCHAR 0076
ENCODING 118
SWIDTH 504 0
DWIDTH 7 0
BBX 7 8 0 0
BITMAP
82
46
44
44
2C
28
28
10
ENDCHAR
STARTCHAR 0077
ENCODING 119
SWIDTH 792 0
DWIDTH 11 0
BBX 11 8 0 0
BITMAP
C460
4A40
4A40
4A40
6AC0
3180
3180
3180
ENDCHAR
STARTCHAR 0078
ENCODING 120
SWIDTH 504 0
DWIDTH 7 0
BBX 7 8 0 0
BITMAP
C6
64
28
18
18
28
64
C6
ENDCHAR
STARTCHAR 0079
ENCODING 121
SWIDTH 504 0
DWIDTH 7 0
BBX 7 12 0 -4
BITMAP
82
46
44
64
2C
28
28
18
10
10
20
E0
ENDCHAR
STARTCHAR 007A
ENCODING 122
SWIDTH 504 0
DWIDTH 7 0
BBX 5 8 1 0
BITMAP
F8
18
10
20
60
40
80
F8
ENDCHAR
STARTCHAR 007B
ENCODING 123
SWIDTH 360 0
DWIDTH 5 0
BBX 5 13 0 -3
BITMAP
18
30
20
20
20
20
C0
20
20
20
20
30
18
ENDCHAR
STARTCHAR 007C
ENCODING 124
SWIDTH 576 0
DWIDTH 8 0
BBX 1 15 3 -4
BITMAP
80
80
80
80
80
80
80
80
80
80
80
80
80
80
80
ENDCHAR
STARTCHAR 007D
ENCODING 125
SWIDTH 360 0
DWIDTH 5 0
BBX 5 13 0 -3
BITMAP
C0
20
20
20
20
20
18
30
20
20
20
20
C0
ENDCHAR
STARTCHAR 007E
ENCODING 126
SWIDTH 576 0
DWIDTH 8 0
BBX 6 2 1 4
BITMAP
E4
9C
ENDCHAR
STARTCHAR 00A0
ENCODING 160
SWIDTH 288 0
DWIDTH 4 0
BBX 0 0 0 0
BITMAP
ENDCHAR
STARTCHAR 00A1
ENCODING 161
SWIDTH 288 0
DWIDTH 4 0
BBX 2 10 1 -2
BITMAP
C0
C0
00
80
80
80
80
80
C0
C0
ENDCHAR
STARTCHAR 00A2
ENCODING 162
SWIDTH 576 0
DWIDTH 8 0
BBX 6 10 1 0
BITMAP
3C
44
C0
C0
C0
C0
40
3C
10
10
ENDCHAR
STARTCHAR 00A3
ENCODING 163
SWIDTH 576 0
DWIDTH 8 0
BBX 7 10 0 0
BITMAP
1E
22
20
20
FC
20
20
20
60
FE
ENDCHAR
STARTCHAR 00A5
ENCODING 165
SWIDTH 576 0
DWIDTH 8 0
BBX 8 10 0 0
BITMAP
C3
42
24
24
18
7E
18
7E
18
18
ENDCHAR
STARTCHAR 00A7
ENCODING 167
SWIDTH 504 0
DWIDTH 7 0
BBX 5 11 1 0
BITMAP
78
88
80
70
98
88
C8
30
08
88
F0
ENDCHAR
STARTCHAR 00A8
ENCODING 168
SWIDTH 576 0
DWIDTH 8 0
BBX 4 1 2 10
BITMAP
90
ENDCHAR
STARTCHAR 00A9
ENCODING 169
SWIDTH 864 0
DWIDTH 12 0
BBX 10 11 1 0
BITMAP
1E00
6100
CE80
9240
B040
A040
A040
9040
9E80
6180
3E00
ENDCHAR
STARTCHAR 00AA
ENCODING 170
SWIDTH 360 0
DWIDTH 5 0
BBX 4 5 0 5
BITMAP
70
10
70
90
70
ENDCHAR
STARTCHAR 00AB
ENCODING 171
SWIDTH 504 0
DWIDTH 7 0
BBX 6 6 1 1
BITMAP
4C
68
90
B0
D8
6C
ENDCHAR
STARTCHAR 00AE
ENCODING 174
SWIDTH 864 0
DWIDTH 12 0
BBX 10 11 1 0
BITMAP
1E00
6100
DC80
9240
9240
9C40
9440
9240
9280
6180
3E00
ENDCHAR
STARTCHAR 00AF
ENCODING 175
SWIDTH 504 0
DWIDTH 7 0
BBX 7 1 0 11
BITMAP
FE
ENDCHAR
STARTCHAR 00B0
ENCODING 176
SWIDTH 432 0
DWIDTH 6 0
BBX 4 5 1 6
BITMAP
60
90
90
90
F0
ENDCHAR
STARTCHAR 00B4
ENCODING 180
SWIDTH 288 0
DWIDTH 4 0
BBX 2 3 1 9
BITMAP
40
C0
80
ENDCHAR
STARTCHAR 00B6
ENCODING 182
SWIDTH 648 0
DWIDTH 9 0
BBX 7 13 1 -2
BITMAP
7E
F2
F2
F2
F2
F2
F2
0A
0A
0A
0A
0A
0A
ENDCHAR
STARTCHAR 00B7
ENCODING 183
SWIDTH 288 0
DWIDTH 4 0
BBX 2 2 1 4
BITMAP
C0
C0
ENDCHAR
STARTCHAR 00B8
ENCODING 184
SWIDTH 216 0
DWIDTH 3 0
BBX 3 4 0 -4
BITMAP
40
60
20
C0
ENDCHAR
STARTCHAR 00BA
ENCODING 186
SWIDTH 360 0
DWIDTH 5 0
BBX 5 5 0 5
BITMAP
70
48
88
48
70
ENDCHAR
STARTCHAR 00BB
ENCODING 187
SWIDTH 504 0
DWIDTH 7 0
BBX 6 6 1 1
BITMAP
B0
90
48
6C
58
B0
ENDCHAR
STARTCHAR 00BF
ENCODING 191
SWIDTH 432 0
DWIDTH 6 0
BBX 6 11 0 -3
BITMAP
10
10
00
10
10
30
60
C0
C0
C4
7C
ENDCHAR
STARTCHAR 00C0
ENCODING 192
SWIDTH 648 0
DWIDTH 9 0
BBX 9 14 0 0
BITMAP
1000
1800
0800
0000
0800
1400
1400
1400
2200
2200
7F00
4100
4100
8180
ENDCHAR
STARTCHAR 00C1
ENCODING 193
SWIDTH 648 0
DWIDTH 9 0
BBX 9 14 0 0
BITMAP
0400
0C00
1800
0000
0800
1400
1400
1400
2200
2200
7F00
4100
4100
8180
ENDCHAR
STARTCHAR 00C2
ENCODING 194
SWIDTH 648 0
DWIDTH 9 0
BBX 9 14 0 0
BITMAP
0800
1C00
3600
0000
0800
1400
1400
1400
2200
2200
7F00
4100
4100
8180
ENDCHAR
STARTCHAR 00C3
ENCODING 195
SWIDTH 648 0
DWIDTH 9 0
BBX 9 13 0 0
BITMAP
3200
2E00
0000
0800
1400
1400
1400
2200
2200
7F00
4100
4100
8180
ENDCHAR
STARTCHAR 00C4
ENCODING 196
SWIDTH 648 0
DWIDTH 9 0
BBX 9 13 0 0
BITMAP
3400
0000
0000
0800
1400
1400
1400
2200
2200
7F00
4100
4100
8180
ENDCHAR
STARTCHAR 00C5
ENCODING 197
SWIDTH 648 0
DWIDTH 9 0
BBX 9 13 0 0
BITMAP
1C00
1400
1C00
0800
1400
1400
1400
2200
2200
7F00
4100
4100
8180
ENDCHAR
STARTCHAR 00C6
ENCODING 198
SWIDTH 864 0
DWIDTH 12 0
BBX 12 10 0 0
BITMAP
0FF0
0B00
0B00
1300
13E0
3300
3F00
6300
4300
C3F0
ENDCHAR
STARTCHAR 00C7
ENCODING 199
SWIDTH 648 0
DWIDTH 9 0
BBX 7 14 1 -4
BITMAP
3E
62
C0
80
80
80
80
C0
60
3E
08
18
04
18
ENDCHAR
STARTCHAR 00C8
ENCODING 200
SWIDTH 576 0
DWIDTH 8 0
BBX 6 14 1 0
BITMAP
60
20
10
00
FC
C0
C0
C0
FC
C0
C0
C0
C0
FC
ENDCHAR
STARTCHAR 00C9
ENCODING 201
SWIDTH 576 0
DWIDTH 8 0
BBX 6 14 1 0
BITMAP
08
10
30
00
FC
C0
C0
C0
FC
C0
C0
C0
C0
FC
ENDCHAR
STARTCHAR 00CA
ENCODING 202
SWIDTH 576 0
DWIDTH 8 0
BBX 6 14 1 0
BITMAP
10
38
4C
00
FC
C0
C0
C0
FC
C0
C0
C0
C0
FC
ENDCHAR
STARTCHAR 00CB
ENCODING 203
SWIDTH 576 0
DWIDTH 8 0
BBX 6 13 1 0
BITMAP
68
00
00
FC
C0
C0
C0
FC
C0
C0
C0
C0
FC
ENDCHAR
STARTCHAR 00CC
ENCODING 204
SWIDTH 360 0
DWIDTH 5 0
BBX 3 14 1 0
BITMAP
80
C0
40
00
E0
40
40
40
40
40
40
40
40
E0
ENDCHAR
STARTCHAR 00CD
ENCODING 205
SWIDTH 360 0
DWIDTH 5 0
BBX 3 14 1 0
BITMAP
20
60
C0
00
E0
40
40
40
40
40
40
40
40
E0
ENDCHAR
STARTCHAR 00CE
ENCODING 206
SWIDTH 360 0
DWIDTH 5 0
BBX 5 14 0 0
BITMAP
20
70
98
00
70
20
20
20
20
20
20
20
20
70
ENDCHAR
STARTCHAR 00CF
ENCODING 207
SWIDTH 360 0
DWIDTH 5 0
BBX 4 13 0 0
BITMAP
D0
00
00
70
20
20
20
20
20
20
20
20
70
ENDCHAR
STARTCHAR 00D0
ENCODING 208
SWIDTH 720 0
DWIDTH 10 0
BBX 9 10 0 0
BITMAP
7E00
6300
6180
6080
F880
6080
6080
6180
6300
7E00
ENDCHAR
STARTCHAR 00D1
ENCODING 209
SWIDTH 792 0
DWIDTH 11 0
BBX 8 13 1 0
BITMAP
32
2C
00
C1
E1
A1
D1
D9
C9
C5
C7
C3
C3
ENDCHAR
STARTCHAR 00D2
ENCODING 210
SWIDTH 792 0
DWIDTH 11 0
BBX 9 14 1 0
BITMAP
1000
1800
0800
0000
3E00
6300
C180
8080
8080
8080
8080
C180
6300
3E00
ENDCHAR
STARTCHAR 00D3
ENCODING 211
SWIDTH 792 0
DWIDTH 11 0
BBX 9 14 1 0
BITMAP
0400
0C00
1800
0000
3E00
6300
C180
8080
8080
8080
8080
C180
6300
3E00
ENDCHAR
STARTCHAR 00D4
ENCODING 212
SWIDTH 792 0
DWIDTH 11 0
BBX 9 14 1 0
BITMAP
0800
1C00
3600
0000
3E00
6300
C180
8080
8080
8080
8080
C180
6300
3E00
ENDCHAR
STARTCHAR 00D5
ENCODING 213
SWIDTH 792 0
DWIDTH 11 0
BBX 9 13 1 0
BITMAP
3A00
2E00
0000
3E00
6300
C180
8080
8080
8080
8080
C180
6300
3E00
ENDCHAR
STARTCHAR 00D6
ENCODING 214
SWIDTH 792 0
DWIDTH 11 0
BBX 9 13 1 0
BITMAP
1400
0000
0000
3E00
6300
C180
8080
8080
8080
8080
C180
6300
3E00
ENDCHAR
STARTCHAR 00D7
ENCODING 215
SWIDTH 576 0
DWIDTH 8 0
BBX 6 6 1 2
BITMAP
84
48
30
30
48
84
ENDCHAR
STARTCHAR 00D8
ENCODING 216
SWIDTH 792 0
DWIDTH 11 0
BBX 9 10 1 0
BITMAP
3F00
6300
C380
8480
8880
9880
9080
E180
6300
FE00
ENDCHAR
STARTCHAR 00D9
ENCODING 217
SWIDTH 720 0
DWIDTH 10 0
BBX 8 14 1 0
BITMAP
30
10
08
00
C1
C1
C1
C1
C1
C1
C1
C1
42
3C
ENDCHAR
STARTCHAR 00DA
ENCODING 218
SWIDTH 720 0
DWIDTH 10 0
BBX 8 14 1 0
BITMAP
0C
08
10
00
C1
C1
C1
C1
C1
C1
C1
C1
42
3C
ENDCHAR
STARTCHAR 00DB
ENCODING 219
SWIDTH 720 0
DWIDTH 10 0
BBX 8 14 1 0
BITMAP
18
18
24
00
C1
C1
C1
C1
C1
C1
C1
C1
42
3C
ENDCHAR
STARTCHAR 00DC
ENCODING 220
SWIDTH 720 0
DWIDTH 10 0
BBX 8 13 1 0
BITMAP
24
00
00
C1
C1
C1
C1
C1
C1
C1
C1
42
3C
ENDCHAR
STARTCHAR 00DD
ENCODING 221
SWIDTH 576 0
DWIDTH 8 0
BBX 8 14 0 0
BITMAP
0C
08
10
00
C3
42
66
24
38
18
18
18
18
18
ENDCHAR
STARTCHAR 00DE
ENCODING 222
SWIDTH 576 0
DWIDTH 8 0
BBX 7 10 1 0
BITMAP
C0
F8
C4
C6
C6
C6
C4
F8
C0
C0
ENDCHAR
STARTCHAR 00DF
ENCODING 223
SWIDTH 648 0
DWIDTH 9 0
BBX 7 11 1 0
BITMAP
78
C4
84
8C
98
98
8C
86
82
A2
9C
ENDCHAR
STARTCHAR 00E0
ENCODING 224
SWIDTH 576 0
DWIDTH 8 0
BBX 6 12 1 0
BITMAP
60
20
10
00
78
8C
04
7C
CC
8C
8C
F4
ENDCHAR
STARTCHAR 00E1
ENCODING 225
SWIDTH 576 0
DWIDTH 8 0
BBX 6 12 1 0
BITMAP
18
10
20
00
78
8C
04
7C
CC
8C
8C
F4
ENDCHAR
STARTCHAR 00E2
ENCODING 226
SWIDTH 576 0
DWIDTH 8 0
BBX 6 12 1 0
BITMAP
30
30
48
00
78
8C
04
7C
CC
8C
8C
F4
ENDCHAR
STARTCHAR 00E3
ENCODING 227
SWIDTH 576 0
DWIDTH 8 0
BBX 6 11 1 0
BITMAP
64
98
00
78
8C
04
7C
CC
8C
8C
F4
ENDCHAR
STARTCHAR 00E4
ENCODING 228
SWIDTH 576 0
DWIDTH 8 0
BBX 6 11 1 0
BITMAP
48
00
00
78
8C
04
7C
CC
8C
8C
F4
ENDCHAR
STARTCHAR 00E5
ENCODING 229
SWIDTH 576 0
DWIDTH 8 0
BBX 6 12 1 0
BITMAP
30
48
30
00
78
8C
04
7C
CC
8C
8C
F4
ENDCHAR
STARTCHAR 00E6
ENCODING 230
SWIDTH 864 0
DWIDTH 12 0
BBX 10 8 1 0
BITMAP
7B80
8C40
0C40
7FC0
8C00
8C00
8C40
F3C0
ENDCHAR
STARTCHAR 00E7
ENCODING 231
SWIDTH 504 0
DWIDTH 7 0
BBX 5 12 1 -4
BITMAP
78
C0
80
80
80
80
C8
78
10
30
10
30
ENDCHAR
STARTCHAR 00E8
ENCODING 232
SWIDTH 576 0
DWIDTH 8 0
BBX 6 12 1 0
BITMAP
60
20
10
00
78
CC
84
FC
80
80
C4
7C
ENDCHAR
STARTCHAR 00E9
ENCODING 233
SWIDTH 576 0
DWIDTH 8 0
BBX 6 12 1 0
BITMAP
18
10
20
00
78
CC
84
FC
80
80
C4
7C
ENDCHAR
STARTCHAR 00EA
ENCODING 234
SWIDTH 576 0
DWIDTH 8 0
BBX 6 12 1 0
BITMAP
30
30
48
00
78
CC
84
FC
80
80
C4
7C
ENDCHAR
STARTCHAR 00EB
ENCODING 235
SWIDTH 576 0
DWIDTH 8 0
BBX 6 11 1 0
BITMAP
48
00
00
78
CC
84
FC
80
80
C4
7C
ENDCHAR
STARTCHAR 00EC
ENCODING 236
SWIDTH 288 0
DWIDTH 4 0
BBX 3 12 0 0
BITMAP
80
40
60
00
40
40
40
40
40
40
40
40
ENDCHAR
STARTCHAR 00ED
ENCODING 237
SWIDTH 288 0
DWIDTH 4 0
BBX 3 12 1 0
BITMAP
60
40
80
00
80
80
80
80
80
80
80
80
ENDCHAR
STARTCHAR 00EE
ENCODING 238
SWIDTH 288 0
DWIDTH 4 0
BBX 5 12 -1 0
BITMAP
20
30
C8
00
20
20
20
20
20
20
20
20
ENDCHAR
STARTCHAR 00EF
ENCODING 239
SWIDTH 288 0
DWIDTH 4 0
BBX 4 11 0 0
BITMAP
B0
00
00
40
40
40
40
40
40
40
40
ENDCHAR
STARTCHAR 00F0
ENCODING 240
SWIDTH 576 0
DWIDTH 8 0
BBX 7 11 1 0
BITMAP
2C
18
68
04
7C
C6
86
86
86
C4
78
ENDCHAR
STARTCHAR 00F1
ENCODING 241
SWIDTH 648 0
DWIDTH 9 0
BBX 7 11 1 0
BITMAP
64
58
00
BC
C4
C6
86
86
86
86
86
ENDCHAR
STARTCHAR 00F2
ENCODING 242
SWIDTH 576 0
DWIDTH 8 0
BBX 7 12 1 0
BITMAP
60
20
10
00
78
C4
86
86
86
86
C4
78
ENDCHAR
STARTCHAR 00F3
ENCODING 243
SWIDTH 576 0
DWIDTH 8 0
BBX 7 12 1 0
BITMAP
08
10
30
00
78
C4
86
86
86
86
C4
78
ENDCHAR
STARTCHAR 00F4
ENCODING 244
SWIDTH 576 0
DWIDTH 8 0
BBX 7 12 1 0
BITMAP
10
38
4C
00
78
C4
86
86
86
86
C4
78
ENDCHAR
STARTCHAR 00F5
ENCODING 245
SWIDTH 576 0
DWIDTH 8 0
BBX 7 11 1 0
BITMAP
64
58
00
78
C4
86
86
86
86
C4
78
ENDCHAR
STARTCHAR 00F6
ENCODING 246
SWIDTH 576 0
DWIDTH 8 0
BBX 7 11 1 0
BITMAP
68
00
00
78
C4
86
86
86
86
C4
78
ENDCHAR
STARTCHAR 00F7
ENCODING 247
SWIDTH 576 0
DWIDTH 8 0
BBX 6 7 1 2
BITMAP
30
30
00
FC
00
30
30
ENDCHAR
STARTCHAR 00F8
ENCODING 248
SWIDTH 576 0
DWIDTH 8 0
BBX 7 8 1 0
BITMAP
7C
CC
8E
96
B6
A6
C4
F8
ENDCHAR
STARTCHAR 00F9
ENCODING 249
SWIDTH 648 0
DWIDTH 9 0
BBX 6 12 1 0
BITMAP
60
20
10
00
84
84
84
84
84
84
CC
7C
ENDCHAR
STARTCHAR 00FA
ENCODING 250
SWIDTH 648 0
DWIDTH 9 0
BBX 6 12 1 0
BITMAP
08
18
30
00
84
84
84
84
84
84
CC
7C
ENDCHAR
STARTCHAR 00FB
ENCODING 251
SWIDTH 648 0
DWIDTH 9 0
BBX 6 12 1 0
BITMAP
10
38
4C
00
84
84
84
84
84
84
CC
7C
ENDCHAR
STARTCHAR 00FC
ENCODING 252
SWIDTH 648 0
DWIDTH 9 0
BBX 6 11 1 0
BITMAP
68
00
00
84
84
84
84
84
84
CC
7C
ENDCHAR
STARTCHAR 00FD
ENCODING 253
SWIDTH 504 0
DWIDTH 7 0
BBX 7 16 0 -4
BITMAP
08
18
10
00
82
46
44
64
2C
28
28
18
10
10
20
E0
ENDCHAR
STARTCHAR 00FE
ENCODING 254
SWIDTH 648 0
DWIDTH 9 0
BBX 7 15 1 -4
BITMAP
80
80
80
B8
C4
C6
82
82
C6
C4
B8
80
80
80
80
ENDCHAR
STARTCHAR 00FF
ENCODING 255
SWIDTH 504 0
DWIDTH 7 0
BBX 7 15 0 -4
BITMAP
2C
00
00
82
46
44
64
2C
28
28
18
10
10
20
E0
ENDCHAR
STARTCHAR 0100
ENCODING 256
SWIDTH 648 0
DWIDTH 9 0
BBX 9 12 0 0
BITMAP
3E00
0000
0800
1400
1400
1400
2200
2200
7F00
4100
4100
8180
ENDCHAR
STARTCHAR 0101
ENCODING 257
SWIDTH 576 0
DWIDTH 8 0
BBX 6 10 1 0
BITMAP
78
00
78
8C
04
7C
CC
8C
8C
F4
ENDCHAR
STARTCHAR 0102
ENCODING 258
SWIDTH 648 0
DWIDTH 9 0
BBX 9 13 0 0
BITMAP
2200
1C00
0000
0800
1400
1400
1400
2200
2200
7F00
4100
4100
8180
ENDCHAR
STARTCHAR 0103
ENCODING 259
SWIDTH 576 0
DWIDTH 8 0
BBX 6 11 1 0
BITMAP
48
78
00
78
8C
04
7C
CC
8C
8C
F4
ENDCHAR
STARTCHAR 0104
ENCODING 260
SWIDTH 648 0
DWIDTH 9 0
BBX 9 13 0 -3
BITMAP
0800
1400
1400
1400
2200
2200
7F00
4100
4100
8180
0100
0100
0180
ENDCHAR
STARTCHAR 0105
ENCODING 261
SWIDTH 576 0
DWIDTH 8 0
BBX 6 11 1 -3
BITMAP
78
8C
04
7C
CC
8C
8C
F4
08
08
0C
ENDCHAR
STARTCHAR 0106
ENCODING 262
SWIDTH 648 0
DWIDTH 9 0
BBX 7 14 1 0
BITMAP
04
0C
18
00
3E
62
C0
80
80
80
80
C0
60
3E
ENDCHAR
STARTCHAR 0107
ENCODING 263
SWIDTH 504 0
DWIDTH 7 0
BBX 5 12 1 0
BITMAP
18
10
20
00
78
C0
80
80
80
80
C8
78
ENDCHAR
STARTCHAR 010A
ENCODING 266
SWIDTH 648 0
DWIDTH 9 0
BBX 7 13 1 0
BITMAP
08
00
00
3E
62
C0
80
80
80
80
C0
60
3E
ENDCHAR
STARTCHAR 010B
ENCODING 267
SWIDTH 504 0
DWIDTH 7 0
BBX 5 11 1 0
BITMAP
30
00
00
78
C0
80
80
80
80
C8
78
ENDCHAR
STARTCHAR 010C
ENCODING 268
SWIDTH 648 0
DWIDTH 9 0
BBX 7 14 1 0
BITMAP
22
14
18
00
3E
62
C0
80
80
80
80
C0
60
3E
ENDCHAR
STARTCHAR 010D
ENCODING 269
SWIDTH 504 0
DWIDTH 7 0
BBX 5 12 1 0
BITMAP
48
78
30
00
78
C0
80
80
80
80
C8
78
ENDCHAR
STARTCHAR 010E
ENCODING 270
SWIDTH 720 0
DWIDTH 10 0
BBX 8 14 1 0
BITMAP
24
3C
18
00
FC
C6
C3
C1
C1
C1
C1
C3
C6
FC
ENDCHAR
STARTCHAR 010F
ENCODING 271
SWIDTH 648 0
DWIDTH 9 0
BBX 9 11 1 0
BITMAP
0580
0500
0400
7C00
CC00
8400
8400
8400
8400
C400
7C00
ENDCHAR
STARTCHAR 0110
ENCODING 272
SWIDTH 720 0
DWIDTH 10 0
BBX 9 10 0 0
BITMAP
7E00
6300
6180
6080
F880
6080
6080
6180
6300
7E00
ENDCHAR
STARTCHAR 0111
ENCODING 273
SWIDTH 648 0
DWIDTH 9 0
BBX 7 11 1 0
BITMAP
04
3E
04
74
CC
84
84
84
84
C4
7C
ENDCHAR
STARTCHAR 0112
ENCODING 274
SWIDTH 576 0
DWIDTH 8 0
BBX 6 12 1 0
BITMAP
78
00
FC
C0
C0
C0
FC
C0
C0
C0
C0
FC
ENDCHAR
STARTCHAR 0113
ENCODING 275
SWIDTH 576 0
DWIDTH 8 0
BBX 6 10 1 0
BITMAP
78
00
78
CC
84
FC
80
80
C4
7C
ENDCHAR
STARTCHAR 0116
ENCODING 278
SWIDTH 576 0
DWIDTH 8 0
BBX 6 13 1 0
BITMAP
10
00
00
FC
C0
C0
C0
FC
C0
C0
C0
C0
FC
ENDCHAR
STARTCHAR 0117
ENCODING 279
SWIDTH 576 0
DWIDTH 8 0
BBX 6 11 1 0
BITMAP
30
00
00
78
CC
84
FC
80
80
C4
7C
ENDCHAR
STARTCHAR 0118
ENCODING 280
SWIDTH 576 0
DWIDTH 8 0
BBX 6 13 1 -3
BITMAP
FC
C0
C0
C0
FC
C0
C0
C0
C0
FC
08
08
0C
ENDCHAR
STARTCHAR 0119
ENCODING 281
SWIDTH 576 0
DWIDTH 8 0
BBX 6 12 1 -4
BITMAP
78
CC
84
84
FC
80
C0
7C
08
08
10
0C
ENDCHAR
STARTCHAR 011A
ENCODING 282
SWIDTH 576 0
DWIDTH 8 0
BBX 6 14 1 0
BITMAP
44
28
30
00
FC
C0
C0
C0
FC
C0
C0
C0
C0
FC
ENDCHAR
STARTCHAR 011B
ENCODING 283
SWIDTH 576 0
DWIDTH 8 0
BBX 6 12 1 0
BITMAP
48
78
30
00
78
CC
84
FC
80
80
C4
7C
ENDCHAR
STARTCHAR 011E
ENCODING 286
SWIDTH 720 0
DWIDTH 10 0
BBX 8 13 1 0
BITMAP
22
1C
00
3F
61
C0
80
87
81
81
C1
61
3F
ENDCHAR
STARTCHAR 011F
ENCODING 287
SWIDTH 648 0
DWIDTH 9 0
BBX 6 15 1 -4
BITMAP
48
78
00
7C
CC
84
84
84
84
C4
7C
04
04
8C
F8
ENDCHAR
STARTCHAR 0120
ENCODING 288
SWIDTH 720 0
DWIDTH 10 0
BBX 8 13 1 0
BITMAP
08
00
00
3F
61
C0
80
87
81
81
C1
61
3F
ENDCHAR
STARTCHAR 0121
ENCODING 289
SWIDTH 648 0
DWIDTH 9 0
BBX 6 15 1 -4
BITMAP
30
00
00
7C
CC
84
84
84
84
C4
7C
04
04
8C
F8
ENDCHAR
STARTCHAR 0122
ENCODING 290
SWIDTH 720 0
DWIDTH 10 0
BBX 8 14 1 -4
BITMAP
3F
61
C0
80
87
81
81
C1
61
3F
00
04
08
08
ENDCHAR
STARTCHAR 0123
ENCODING 291
SWIDTH 648 0
DWIDTH 9 0
BBX 6 15 1 -4
BITMAP
10
30
00
7C
CC
84
84
84
84
C4
7C
04
04
8C
F8
ENDCHAR
STARTCHAR 0126
ENCODING 294
SWIDTH 720 0
DWIDTH 10 0
BBX 10 10 0 0
BITMAP
6080
FFC0
6080
6080
7F80
6080
6080
6080
6080
6080
ENDCHAR
STARTCHAR 0127
ENCODING 295
SWIDTH 648 0
DWIDTH 9 0
BBX 8 11 0 0
BITMAP
40
F8
40
5E
62
62
43
43
43
43
43
ENDCHAR
STARTCHAR 012A
ENCODING 298
SWIDTH 360 0
DWIDTH 5 0
BBX 4 12 0 0
BITMAP
F0
00
70
20
20
20
20
20
20
20
20
70
ENDCHAR
STARTCHAR 012B
ENCODING 299
SWIDTH 288 0
DWIDTH 4 0
BBX 4 10 0 0
BITMAP
F0
00
40
40
40
40
40
40
40
40
ENDCHAR
STARTCHAR 012E
ENCODING 302
SWIDTH 360 0
DWIDTH 5 0
BBX 3 13 1 -3
BITMAP
E0
40
40
40
40
40
40
40
40
E0
40
40
60
ENDCHAR
STARTCHAR 012F
ENCODING 303
SWIDTH 288 0
DWIDTH 4 0
BBX 3 14 0 -3
BITMAP
60
00
00
40
40
40
40
40
40
40
40
40
80
60
ENDCHAR
STARTCHAR 0130
ENCODING 304
SWIDTH 360 0
DWIDTH 5 0
BBX 3 13 1 0
BITMAP
40
00
00
E0
40
40
40
40
40
40
40
40
E0
ENDCHAR
STARTCHAR 0131
ENCODING 305
SWIDTH 288 0
DWIDTH 4 0
BBX 1 8 1 0
BITMAP
80
80
80
80
80
80
80
80
ENDCHAR
STARTCHAR 0132
ENCODING 306
SWIDTH 648 0
DWIDTH 9 0
BBX 6 13 1 -3
BITMAP
E4
44
44
44
44
44
44
44
44
E4
04
04
18
ENDCHAR
STARTCHAR 0133
ENCODING 307
SWIDTH 504 0
DWIDTH 7 0
BBX 5 15 1 -4
BITMAP
C8
00
00
88
88
88
88
88
88
88
88
08
08
08
30
ENDCHAR
STARTCHAR 0136
ENCODING 310
SWIDTH 648 0
DWIDTH 9 0
BBX 8 14 1 -4
BITMAP
C3
C4
C8
D0
F0
D0
C8
CC
C6
C3
00
08
10
10
ENDCHAR
STARTCHAR 0137
ENCODING 311
SWIDTH 504 0
DWIDTH 7 0
BBX 6 15 1 -4
BITMAP
80
80
80
8C
98
B0
A0
F0
98
88
84
00
00
30
20
ENDCHAR
STARTCHAR 0139
ENCODING 313
SWIDTH 504 0
DWIDTH 7 0
BBX 6 14 1 0
BITMAP
60
40
80
00
C0
C0
C0
C0
C0
C0
C0
C0
C0
FC
ENDCHAR
STARTCHAR 013A
ENCODING 314
SWIDTH 288 0
DWIDTH 4 0
BBX 3 15 1 0
BITMAP
60
40
80
00
80
80
80
80
80
80
80
80
80
80
80
ENDCHAR
STARTCHAR 013B
ENCODING 315
SWIDTH 504 0
DWIDTH 7 0
BBX 6 14 1 -4
BITMAP
C0
C0
C0
C0
C0
C0
C0
C0
C0
FC
00
00
10
20
ENDCHAR
STARTCHAR 013C
ENCODING 316
SWIDTH 288 0
DWIDTH 4 0
BBX 2 15 1 -4
BITMAP
80
80
80
80
80
80
80
80
80
80
80
00
00
C0
80
ENDCHAR
STARTCHAR 013D
ENCODING 317
SWIDTH 504 0
DWIDTH 7 0
BBX 6 10 1 0
BITMAP
C4
C8
C0
C0
C0
C0
C0
C0
C0
FC
ENDCHAR
STARTCHAR 013E
ENCODING 318
SWIDTH 288 0
DWIDTH 4 0
BBX 4 11 1 0
BITMAP
B0
A0
80
80
80
80
80
80
80
80
80
ENDCHAR
STARTCHAR 0141
ENCODING 321
SWIDTH 504 0
DWIDTH 7 0
BBX 7 10 0 0
BITMAP
60
60
60
60
78
60
E0
60
60
7E
ENDCHAR
STARTCHAR 0142
ENCODING 322
SWIDTH 288 0
DWIDTH 4 0
BBX 4 11 0 0
BITMAP
40
40
40
40
50
60
C0
40
40
40
40
ENDCHAR
STARTCHAR 0143
ENCODING 323
SWIDTH 792 0
DWIDTH 11 0
BBX 8 14 1 0
BITMAP
04
0C
18
00
C1
E1
A1
D1
D9
C9
C5
C7
C3
C3
ENDCHAR
STARTCHAR 0144
ENCODING 324
SWIDTH 648 0
DWIDTH 9 0
BBX 7 12 1 0
BITMAP
08
18
30
00
BC
C4
C6
86
86
86
86
86
ENDCHAR
STARTCHAR 0145
ENCODING 325
SWIDTH 792 0
DWIDTH 11 0
BBX 8 14 1 -4
BITMAP
C1
E1
A1
D1
D9
C9
C5
C7
C3
C3
00
00
08
18
ENDCHAR
STARTCHAR 0146
ENCODING 326
SWIDTH 648 0
DWIDTH 9 0
BBX 7 12 1 -4
BITMAP
BC
C4
C6
86
86
86
86
86
00
00
10
30
ENDCHAR
STARTCHAR 0147
ENCODING 327
SWIDTH 792 0
DWIDTH 11 0
BBX 8 14 1 0
BITMAP
22
14
18
00
C1
E1
A1
D1
D9
C9
C5
C7
C3
C3
ENDCHAR
STARTCHAR 0148
ENCODING 328
SWIDTH 648 0
DWIDTH 9 0
BBX 7 12 1 0
BITMAP
44
28
30
00
BC
C4
C6
86
86
86
86
86
ENDCHAR
STARTCHAR 014A
ENCODING 330
SWIDTH 792 0
DWIDTH 11 0
BBX 8 13 1 -3
BITMAP
C1
E1
A1
D1
D9
C9
C5
C7
C3
C1
01
01
06
ENDCHAR
STARTCHAR 014B
ENCODING 331
SWIDTH 648 0
DWIDTH 9 0
BBX 7 12 1 -4
BITMAP
BC
C4
C6
86
86
86
86
86
06
06
04
0C
ENDCHAR
STARTCHAR 014C
ENCODING 332
SWIDTH 792 0
DWIDTH 11 0
BBX 9 12 1 0
BITMAP
3E00
0000
3E00
6300
C180
8080
8080
8080
8080
C180
6300
3E00
ENDCHAR
STARTCHAR 014D
ENCODING 333
SWIDTH 576 0
DWIDTH 8 0
BBX 7 10 1 0
BITMAP
78
00
78
C4
86
86
86
86
C4
78
ENDCHAR
STARTCHAR 0150
ENCODING 336
SWIDTH 792 0
DWIDTH 11 0
BBX 9 13 1 0
BITMAP
1E00
2C00
0000
3E00
6300
C180
8080
8080
8080
8080
C180
6300
3E00
ENDCHAR
STARTCHAR 0151
ENCODING 337
SWIDTH 576 0
DWIDTH 8 0
BBX 7 11 1 0
BITMAP
2C
50
00
78
C4
86
86
86
86
C4
78
ENDCHAR
STARTCHAR 0152
ENCODING 338
SWIDTH 936 0
DWIDTH 13 0
BBX 11 10 1 0
BITMAP
3FE0
6200
C200
8200
83E0
8200
8200
C200
6200
3FE0
ENDCHAR
STARTCHAR 0153
ENCODING 339
SWIDTH 936 0
DWIDTH 13 0
BBX 12 8 1 0
BITMAP
79C0
CE20
8620
87F0
8600
8600
CE10
79E0
ENDCHAR
STARTCHAR 0154
ENCODING 340
SWIDTH 648 0
DWIDTH 9 0
BBX 8 14 1 0
BITMAP
08
18
30
00
FC
C4
C6
C6
C4
F8
C8
CC
C6
C3
ENDCHAR
STARTCHAR 0155
ENCODING 341
SWIDTH 432 0
DWIDTH 6 0
BBX 5 12 1 0
BITMAP
10
30
60
00
B8
C0
C0
80
80
80
80
80
ENDCHAR
STARTCHAR 0156
ENCODING 342
SWIDTH 648 0
DWIDTH 9 0
BBX 8 14 1 -4
BITMAP
FC
C4
C6
C6
C4
F8
C8
CC
C6
C2
01
00
10
10
ENDCHAR
STARTCHAR 0157
ENCODING 343
SWIDTH 432 0
DWIDTH 6 0
BBX 5 12 1 -4
BITMAP
B8
C0
C0
80
80
80
80
80
00
00
C0
80
ENDCHAR
STARTCHAR 0158
ENCODING 344
SWIDTH 648 0
DWIDTH 9 0
BBX 8 14 1 0
BITMAP
44
28
30
00
FC
C4
C6
C6
C4
F8
C8
CC
C6
C3
ENDCHAR
STARTCHAR 0159
ENCODING 345
SWIDTH 432 0
DWIDTH 6 0
BBX 5 12 1 0
BITMAP
88
50
60
00
B8
C0
C0
80
80
80
80
80
ENDCHAR
STARTCHAR 015A
ENCODING 346
SWIDTH 576 0
DWIDTH 8 0
BBX 6 14 1 0
BITMAP
18
10
20
00
7C
C4
80
80
60
18
04
04
8C
F8
ENDCHAR
STARTCHAR 015B
ENCODING 347
SWIDTH 504 0
DWIDTH 7 0
BBX 5 12 1 0
BITMAP
10
30
60
00
78
88
80
E0
38
08
88
F0
ENDCHAR
STARTCHAR 015E
ENCODING 350
SWIDTH 576 0
DWIDTH 8 0
BBX 6 14 1 -4
BITMAP
7C
C4
80
80
60
18
04
04
8C
F8
20
30
10
60
ENDCHAR
STARTCHAR 015F
ENCODING 351
SWIDTH 504 0
DWIDTH 7 0
BBX 5 12 1 -4
BITMAP
78
88
80
E0
38
08
88
F0
20
60
10
60
ENDCHAR
STARTCHAR 0160
ENCODING 352
SWIDTH 576 0
DWIDTH 8 0
BBX 6 14 1 0
BITMAP
48
78
30
00
7C
C4
80
80
60
18
04
04
8C
F8
ENDCHAR
STARTCHAR 0161
ENCODING 353
SWIDTH 504 0
DWIDTH 7 0
BBX 5 12 1 0
BITMAP
88
50
60
00
78
88
80
E0
38
08
88
F0
ENDCHAR
STARTCHAR 0164
ENCODING 356
SWIDTH 576 0
DWIDTH 8 0
BBX 8 14 0 0
BITMAP
44
2C
18
00
FF
18
18
18
18
18
18
18
18
18
ENDCHAR
STARTCHAR 0165
ENCODING 357
SWIDTH 360 0
DWIDTH 5 0
BBX 7 11 0 0
BITMAP
06
24
60
F8
60
60
60
60
60
60
38
ENDCHAR
STARTCHAR 016A
ENCODING 362
SWIDTH 720 0
DWIDTH 10 0
BBX 8 12 1 0
BITMAP
3C
00
C1
C1
C1
C1
C1
C1
C1
C1
42
3C
ENDCHAR
STARTCHAR 016B
ENCODING 363
SWIDTH 648 0
DWIDTH 9 0
BBX 6 10 1 0
BITMAP
78
00
84
84
84
84
84
84
CC
7C
ENDCHAR
STARTCHAR 016C
ENCODING 364
SWIDTH 720 0
DWIDTH 10 0
BBX 8 13 1 0
BITMAP
24
3C
00
C1
C1
C1
C1
C1
C1
C1
C1
42
3C
ENDCHAR
STARTCHAR 016D
ENCODING 365
SWIDTH 648 0
DWIDTH 9 0
BBX 6 11 1 0
BITMAP
44
38
00
84
84
84
84
84
84
CC
7C
ENDCHAR
STARTCHAR 016E
ENCODING 366
SWIDTH 720 0
DWIDTH 10 0
BBX 8 14 1 0
BITMAP
18
24
18
00
C1
C1
C1
C1
C1
C1
C1
C1
42
3C
ENDCHAR
STARTCHAR 016F
ENCODING 367
SWIDTH 648 0
DWIDTH 9 0
BBX 6 12 1 0
BITMAP
30
28
38
00
84
84
84
84
84
84
CC
7C
ENDCHAR
STARTCHAR 0170
ENCODING 368
SWIDTH 720 0
DWIDTH 10 0
BBX 8 13 1 0
BITMAP
36
28
00
C1
C1
C1
C1
C1
C1
C1
C1
42
3C
ENDCHAR
STARTCHAR 0171
ENCODING 369
SWIDTH 648 0
DWIDTH 9 0
BBX 6 11 1 0
BITMAP
2C
58
00
84
84
84
84
84
84
CC
7C
ENDCHAR
STARTCHAR 0172
ENCODING 370
SWIDTH 720 0
DWIDTH 10 0
BBX 8 14 1 -4
BITMAP
C1
C1
C1
C1
C1
C1
C1
C1
43
3E
04
04
04
06
ENDCHAR
STARTCHAR 0173
ENCODING 371
SWIDTH 648 0
DWIDTH 9 0
BBX 7 11 1 -3
BITMAP
84
84
84
84
84
84
CC
7C
04
08
0E
ENDCHAR
STARTCHAR 0174
ENCODING 372
SWIDTH 936 0
DWIDTH 13 0
BBX 13 14 0 0
BITMAP
0200
0700
0D80
0000
C218
4710
4510
4510
6D30
28A0
28A0
28A0
38E0
1040
ENDCHAR
STARTCHAR 0175
ENCODING 373
SWIDTH 792 0
DWIDTH 11 0
BBX 11 12 0 0
BITMAP
0400
0E00
1B00
0000
C460
4A40
4A40
4A40
6AC0
3180
3180
3180
ENDCHAR
STARTCHAR 0176
ENCODING 374
SWIDTH 576 0
DWIDTH 8 0
BBX 8 14 0 0
BITMAP
18
18
24
00
C3
42
66
24
38
18
18
18
18
18
ENDCHAR
STARTCHAR 0177
ENCODING 375
SWIDTH 504 0
DWIDTH 7 0
BBX 7 16 0 -4
BITMAP
10
38
6C
00
82
46
44
64
2C
28
28
18
10
10
20
E0
ENDCHAR
STARTCHAR 0178
ENCODING 376
SWIDTH 576 0
DWIDTH 8 0
BBX 8 13 0 0
BITMAP
24
00
00
C3
42
66
24
38
18
18
18
18
18
ENDCHAR
STARTCHAR 0179
ENCODING 377
SWIDTH 576 0
DWIDTH 8 0
BBX 6 14 1 0
BITMAP
18
10
20
00
FC
04
08
18
10
20
60
40
80
FC
ENDCHAR
STARTCHAR 017A
ENCODING 378
SWIDTH 504 0
DWIDTH 7 0
BBX 5 12 1 0
BITMAP
10
20
60
00
F8
18
10
20
60
40
80
F8
ENDCHAR
STARTCHAR 017B
ENCODING 379
SWIDTH 576 0
DWIDTH 8 0
BBX 6 13 1 0
BITMAP
30
00
00
FC
04
08
18
10
20
60
40
80
FC
ENDCHAR
STARTCHAR 017C
ENCODING 380
SWIDTH 504 0
DWIDTH 7 0
BBX 5 11 1 0
BITMAP
20
00
00
F8
18
10
20
60
40
80
F8
ENDCHAR
STARTCHAR 017D
ENCODING 381
SWIDTH 576 0
DWIDTH 8 0
BBX 6 14 1 0
BITMAP
48
78
30
00
FC
04
08
18
10
20
60
40
80
FC
ENDCHAR
STARTCHAR 017E
ENCODING 382
SWIDTH 504 0
DWIDTH 7 0
BBX 5 12 1 0
BITMAP
88
50
60
00
F8
18
10
20
60
40
80
F8
ENDCHAR
STARTCHAR 01CD
ENCODING 461
SWIDTH 648 0
DWIDTH 9 0
BBX 9 14 0 0
BITMAP
2200
1400
0800
0000
0800
1400
1400
1400
2200
2200
7F00
4100
4100
8180
ENDCHAR
STARTCHAR 01CE
ENCODING 462
SWIDTH 576 0
DWIDTH 8 0
BBX 6 12 1 0
BITMAP
88
78
30
00
78
8C
04
7C
CC
8C
8C
F4
ENDCHAR
STARTCHAR 0218
ENCODING 536
SWIDTH 576 0
DWIDTH 8 0
BBX 6 14 1 -4
BITMAP
7C
C4
80
80
60
18
04
04
8C
F8
00
10
20
20
ENDCHAR
STARTCHAR 0219
ENCODING 537
SWIDTH 504 0
DWIDTH 7 0
BBX 5 12 1 -4
BITMAP
78
88
80
E0
38
08
88
F0
00
00
20
60
ENDCHAR
STARTCHAR 021A
ENCODING 538
SWIDTH 576 0
DWIDTH 8 0
BBX 8 14 0 -4
BITMAP
FF
18
18
18
18
18
18
18
18
18
00
00
18
10
ENDCHAR
STARTCHAR 021B
ENCODING 539
SWIDTH 360 0
DWIDTH 5 0
BBX 5 14 0 -4
BITMAP
20
60
F8
60
60
60
60
60
60
38
00
00
10
20
ENDCHAR
STARTCHAR 0237
ENCODING 567
SWIDTH 288 0
DWIDTH 4 0
BBX 3 12 -1 -4
BITMAP
20
20
20
20
20
20
20
20
20
20
20
E0
ENDCHAR
STARTCHAR 02C6
ENCODING 710
SWIDTH 432 0
DWIDTH 6 0
BBX 4 3 1 9
BITMAP
60
60
90
ENDCHAR
STARTCHAR 02C7
ENCODING 711
SWIDTH 432 0
DWIDTH 6 0
BBX 4 3 1 9
BITMAP
90
F0
60
ENDCHAR
STARTCHAR 02C9
ENCODING 713
SWIDTH 360 0
DWIDTH 5 0
BBX 4 1 1 9
BITMAP
F0
ENDCHAR
STARTCHAR 02D8
ENCODING 728
SWIDTH 360 0
DWIDTH 5 0
BBX 4 2 1 9
BITMAP
90
E0
ENDCHAR
STARTCHAR 02D9
ENCODING 729
SWIDTH 216 0
DWIDTH 3 0
BBX 1 1 1 10
BITMAP
80
ENDCHAR
STARTCHAR 02DA
ENCODING 730
SWIDTH 288 0
DWIDTH 4 0
BBX 3 3 1 9
BITMAP
C0
A0
C0
ENDCHAR
STARTCHAR 02DB
ENCODING 731
SWIDTH 216 0
DWIDTH 3 0
BBX 2 3 1 -3
BITMAP
C0
80
C0
ENDCHAR
STARTCHAR 02DC
ENCODING 732
SWIDTH 432 0
DWIDTH 6 0
BBX 5 2 1 9
BITMAP
C8
B0
ENDCHAR
STARTCHAR 02DD
ENCODING 733
SWIDTH 432 0
DWIDTH 6 0
BBX 5 2 1 9
BITMAP
D8
A0
ENDCHAR
STARTCHAR 0300
ENCODING 768
SWIDTH 0 0
DWIDTH 0 0
BBX 3 3 -7 9
BITMAP
C0
40
20
ENDCHAR
STARTCHAR 0301
ENCODING 769
SWIDTH 0 0
DWIDTH 0 0
BBX 3 3 -5 9
BITMAP
60
40
C0
ENDCHAR
STARTCHAR 0302
ENCODING 770
SWIDTH 0 0
DWIDTH 0 0
BBX 4 3 -2 9
BITMAP
60
60
90
ENDCHAR
STARTCHAR 0303
ENCODING 771
SWIDTH 0 0
DWIDTH 0 0
BBX 5 2 -7 9
BITMAP
68
B8
ENDCHAR
STARTCHAR 0304
ENCODING 772
SWIDTH 0 0
DWIDTH 0 0
BBX 4 1 -2 9
BITMAP
F0
ENDCHAR
STARTCHAR 0306
ENCODING 774
SWIDTH 0 0
DWIDTH 0 0
BBX 4 2 -2 9
BITMAP
90
F0
ENDCHAR
STARTCHAR 0307
ENCODING 775
SWIDTH 0 0
DWIDTH 0 0
BBX 2 1 -1 10
BITMAP
C0
ENDCHAR
STARTCHAR 0308
ENCODING 776
SWIDTH 0 0
DWIDTH 0 0
BBX 4 1 -2 10
BITMAP
90
ENDCHAR
STARTCHAR 030A
ENCODING 778
SWIDTH 0 0
DWIDTH 0 0
BBX 4 3 -2 9
BITMAP
60
90
60
ENDCHAR
STARTCHAR 030B
ENCODING 779
SWIDTH 0 0
DWIDTH 0 0
BBX 5 2 -2 9
BITMAP
68
D0
ENDCHAR
STARTCHAR 030C
ENCODING 780
SWIDTH 0 0
DWIDTH 0 0
BBX 4 3 -2 9
BITMAP
90
F0
60
ENDCHAR
STARTCHAR 0312
ENCODING 786
SWIDTH 0 0
DWIDTH 0 0
BBX 2 3 -1 7
BITMAP
40
C0
80
ENDCHAR
STARTCHAR 0323
ENCODING 803
SWIDTH 0 0
DWIDTH 0 0
BBX 2 1 -5 -2
BITMAP
C0
ENDCHAR
STARTCHAR 0324
ENCODING 804
SWIDTH 0 0
DWIDTH 0 0
BBX 4 1 -2 10
BITMAP
90
ENDCHAR
STARTCHAR 0326
ENCODING 806
SWIDTH 0 0
DWIDTH 0 0
BBX 2 2 -1 -4
BITMAP
40
80
ENDCHAR
STARTCHAR 0327
ENCODING 807
SWIDTH 0 0
DWIDTH 0 0
BBX 2 4 -1 -4
BITMAP
40
C0
40
C0
ENDCHAR
STARTCHAR 0328
ENCODING 808
SWIDTH 0 0
DWIDTH 0 0
BBX 2 3 -1 -3
BITMAP
C0
80
C0
ENDCHAR
STARTCHAR 0330
ENCODING 816
SWIDTH 0 0
DWIDTH 0 0
BBX 6 2 -3 -3
BITMAP
64
98
ENDCHAR
STARTCHAR 0331
ENCODING 817
SWIDTH 0 0
DWIDTH 0 0
BBX 4 1 -2 -2
BITMAP
F0
ENDCHAR
STARTCHAR 13A0
ENCODING 5024
SWIDTH 792 0
DWIDTH 11 0
BBX 9 11 1 0
BITMAP
FE00
4300
4100
4080
4080
4080
4080
4080
4100
4300
FC00
ENDCHAR
STARTCHAR 13A1
ENCODING 5025
SWIDTH 720 0
DWIDTH 10 0
BBX 9 11 1 0
BITMAP
FE00
4300
4100
4300
4200
7C00
4600
4200
4200
4200
F180
ENDCHAR
STARTCHAR 13A2
ENCODING 5026
SWIDTH 720 0
DWIDTH 10 0
BBX 9 11 0 0
BITMAP
FF80
8880
8880
0800
0800
0800
0800
0800
0800
0800
1E00
ENDCHAR
STARTCHAR 13A3
ENCODING 5027
SWIDTH 864 0
DWIDTH 12 0
BBX 10 11 1 0
BITMAP
0E00
0400
0400
0B80
70C0
8840
8840
8C40
8840
88C0
7180
ENDCHAR
STARTCHAR 13A4
ENCODING 5028
SWIDTH 1080 0
DWIDTH 15 0
BBX 14 11 1 0
BITMAP
3C38
4228
C144
8104
8188
8188
8170
8100
C100
4200
3C00
ENDCHAR
STARTCHAR 13A5
ENCODING 5029
SWIDTH 360 0
DWIDTH 5 0
BBX 3 11 1 0
BITMAP
40
40
00
00
40
40
40
40
40
40
E0
ENDCHAR
STARTCHAR 13A6
ENCODING 5030
SWIDTH 720 0
DWIDTH 10 0
BBX 8 11 1 0
BITMAP
3C
42
46
40
20
FF
04
02
42
46
7C
ENDCHAR
STARTCHAR 13A7
ENCODING 5031
SWIDTH 792 0
DWIDTH 11 0
BBX 10 11 1 0
BITMAP
3E00
4300
0080
7080
C8C0
88C0
88C0
9880
F080
4300
3E00
ENDCHAR
STARTCHAR 13A8
ENCODING 5032
SWIDTH 720 0
DWIDTH 10 0
BBX 9 11 1 0
BITMAP
E000
4000
4000
4800
5880
7500
4700
4000
4000
4000
E000
ENDCHAR
STARTCHAR 13A9
ENCODING 5033
SWIDTH 792 0
DWIDTH 11 0
BBX 10 11 0 0
BITMAP
F1C0
2080
2080
1100
1100
1A00
0A00
0C00
0400
2800
3000
ENDCHAR
STARTCHAR 13AA
ENCODING 5034
SWIDTH 720 0
DWIDTH 10 0
BBX 10 11 0 0
BITMAP
0C00
0E00
0A00
1A00
1200
1100
3100
3F00
2180
6080
F1C0
ENDCHAR
STARTCHAR 13AB
ENCODING 5035
SWIDTH 576 0
DWIDTH 8 0
BBX 8 11 0 0
BITMAP
0F
04
04
04
04
04
04
04
C4
CC
78
ENDCHAR
STARTCHAR 13AC
ENCODING 5036
SWIDTH 720 0
DWIDTH 10 0
BBX 8 11 1 0
BITMAP
FF
41
41
40
44
7C
44
40
41
41
FF
ENDCHAR
STARTCHAR 13AD
ENCODING 5037
SWIDTH 1008 0
DWIDTH 14 0
BBX 14 11 0 0
BITMAP
03C0
0100
0100
3900
493C
4710
C520
4920
3940
0140
0180
ENDCHAR
STARTCHAR 13AE
ENCODING 5038
SWIDTH 648 0
DWIDTH 9 0
BBX 7 12 1 0
BITMAP
78
86
02
02
E2
46
78
40
40
40
40
E0
ENDCHAR
STARTCHAR 13AF
ENCODING 5039
SWIDTH 792 0
DWIDTH 11 0
BBX 10 11 0 0
BITMAP
0700
0880
0880
10C0
1040
1040
1FC0
1040
10C0
E380
E380
ENDCHAR
STARTCHAR 13B0
ENCODING 5040
SWIDTH 648 0
DWIDTH 9 0
BBX 7 11 1 0
BITMAP
E0
40
40
40
42
7E
42
42
40
40
E0
ENDCHAR
STARTCHAR 13B1
ENCODING 5041
SWIDTH 648 0
DWIDTH 9 0
BBX 8 11 1 0
BITMAP
FF
41
41
40
40
40
40
40
40
40
F0
ENDCHAR
STARTCHAR 13B2
ENCODING 5042
SWIDTH 936 0
DWIDTH 13 0
BBX 11 11 1 0
BITMAP
1E00
1200
2300
2300
2300
3200
1200
9CE0
8C40
8C40
7380
ENDCHAR
STARTCHAR 13B3
ENCODING 5043
SWIDTH 1080 0
DWIDTH 15 0
BBX 15 11 0 0
BITMAP
F39E
610C
2108
2288
2288
3290
1290
1450
1450
0C60
0860
ENDCHAR
STARTCHAR 13B4
ENCODING 5044
SWIDTH 792 0
DWIDTH 11 0
BBX 10 11 1 0
BITMAP
0380
0480
04C0
0C80
7C00
8C00
8C00
8400
8800
8800
7000
ENDCHAR
STARTCHAR 13B5
ENCODING 5045
SWIDTH 720 0
DWIDTH 10 0
BBX 8 11 1 0
BITMAP
1C
22
41
41
41
46
40
40
40
40
E0
ENDCHAR
STARTCHAR 13B6
ENCODING 5046
SWIDTH 720 0
DWIDTH 10 0
BBX 8 11 1 0
BITMAP
3E
61
C1
80
88
86
89
89
C1
63
3C
ENDCHAR
STARTCHAR 13B7
ENCODING 5047
SWIDTH 1008 0
DWIDTH 14 0
BBX 12 11 1 0
BITMAP
E070
70A0
50A0
50A0
58A0
4920
4920
4920
4620
4620
E670
ENDCHAR
STARTCHAR 13B8
ENCODING 5048
SWIDTH 792 0
DWIDTH 11 0
BBX 10 11 1 0
BITMAP
1E00
2300
3100
0100
8100
E100
A300
9D00
0100
0100
03C0
ENDCHAR
STARTCHAR 13B9
ENCODING 5049
SWIDTH 1008 0
DWIDTH 14 0
BBX 13 11 0 0
BITMAP
1E38
0448
0488
0708
0818
3C10
5600
9200
3200
1200
1C00
ENDCHAR
STARTCHAR 13BA
ENCODING 5050
SWIDTH 1080 0
DWIDTH 15 0
BBX 12 11 1 0
BITMAP
3E10
6310
C110
8190
8090
80F0
8090
8190
C110
6310
3E10
ENDCHAR
STARTCHAR 13BB
ENCODING 5051
SWIDTH 864 0
DWIDTH 12 0
BBX 10 11 1 0
BITMAP
E3C0
4080
4080
4080
4080
7F80
4080
4080
4080
4080
E3C0
ENDCHAR
STARTCHAR 13BC
ENCODING 5052
SWIDTH 792 0
DWIDTH 11 0
BBX 11 11 0 0
BITMAP
0F00
0200
0200
0780
8CC0
7060
0020
0020
1040
08C0
0780
ENDCHAR
STARTCHAR 13BD
ENCODING 5053
SWIDTH 792 0
DWIDTH 11 0
BBX 11 11 0 0
BITMAP
61E0
2040
3080
1080
1900
0900
0600
E600
4600
6400
3800
ENDCHAR
STARTCHAR 13BE
ENCODING 5054
SWIDTH 792 0
DWIDTH 11 0
BBX 9 11 1 0
BITMAP
3E00
6300
C100
8180
8080
FF80
8080
8080
C100
6300
3E00
ENDCHAR
STARTCHAR 13BF
ENCODING 5055
SWIDTH 792 0
DWIDTH 11 0
BBX 11 12 0 -1
BITMAP
3000
3000
FC00
3000
3000
3000
33E0
3080
3180
1180
1E80
0080
ENDCHAR
STARTCHAR 13C0
ENCODING 5056
SWIDTH 792 0
DWIDTH 11 0
BBX 9 11 1 0
BITMAP
3E00
6100
4100
8000
8000
8000
8380
8100
C100
6300
3D00
ENDCHAR
STARTCHAR 13C1
ENCODING 5057
SWIDTH 864 0
DWIDTH 12 0
BBX 11 11 0 0
BITMAP
0700
0880
08C0
1040
1040
1040
1040
1040
1040
E040
E1E0
ENDCHAR
STARTCHAR 13C2
ENCODING 5058
SWIDTH 792 0
DWIDTH 11 0
BBX 9 11 1 0
BITMAP
F000
4000
4000
4000
5E00
6300
6100
4100
4100
4100
E380
ENDCHAR
STARTCHAR 13C3
ENCODING 5059
SWIDTH 648 0
DWIDTH 9 0
BBX 7 11 1 0
BITMAP
FE
82
84
08
18
10
20
60
42
82
FE
ENDCHAR
STARTCHAR 13C4
ENCODING 5060
SWIDTH 720 0
DWIDTH 10 0
BBX 9 11 0 0
BITMAP
1E00
2300
6100
F100
0100
F100
4100
2300
1D00
0100
0380
ENDCHAR
STARTCHAR 13C5
ENCODING 5061
SWIDTH 1152 0
DWIDTH 16 0
BBX 15 11 1 0
BITMAP
3C00
4200
C100
8122
8164
81A4
811C
8100
C100
4200
3C00
ENDCHAR
STARTCHAR 13C6
ENCODING 5062
SWIDTH 792 0
DWIDTH 11 0
BBX 9 11 1 0
BITMAP
FF00
8900
8900
0800
0800
0800
0800
0800
8880
8880
FF80
ENDCHAR
STARTCHAR 13C7
ENCODING 5063
SWIDTH 1008 0
DWIDTH 14 0
BBX 13 11 1 0
BITMAP
03C0
0420
0010
0010
0018
8618
8618
8610
8610
8E30
79E0
ENDCHAR
STARTCHAR 13C8
ENCODING 5064
SWIDTH 864 0
DWIDTH 12 0
BBX 11 11 1 0
BITMAP
73C0
8C40
8C20
9A40
1240
1200
2300
2100
2300
1200
1C00
ENDCHAR
STARTCHAR 13C9
ENCODING 5065
SWIDTH 1296 0
DWIDTH 18 0
BBX 18 11 0 0
BITMAP
041380
041C40
063040
022440
722380
522000
864000
4D4000
794000
018000
018000
ENDCHAR
STARTCHAR 13CA
ENCODING 5066
SWIDTH 1080 0
DWIDTH 15 0
BBX 13 11 1 0
BITMAP
03E0
0630
0018
0008
0008
8388
8288
8608
8618
8E30
79E0
ENDCHAR
STARTCHAR 13CB
ENCODING 5067
SWIDTH 648 0
DWIDTH 9 0
BBX 7 11 1 0
BITMAP
3C
42
C0
C0
40
3C
40
86
82
C2
7C
ENDCHAR
STARTCHAR 13CC
ENCODING 5068
SWIDTH 792 0
DWIDTH 11 0
BBX 10 11 1 0
BITMAP
E3C0
4180
4180
4180
4180
7F80
4180
4180
4100
6100
3E00
ENDCHAR
STARTCHAR 13CD
ENCODING 5069
SWIDTH 1080 0
DWIDTH 15 0
BBX 13 11 1 0
BITMAP
0FC0
3060
0010
0010
73D8
8908
8B08
8D08
8998
8890
70E0
ENDCHAR
STARTCHAR 13CE
ENCODING 5070
SWIDTH 648 0
DWIDTH 9 0
BBX 8 11 0 0
BITMAP
06
0E
1E
16
26
66
46
FF
06
06
0F
ENDCHAR
STARTCHAR 13CF
ENCODING 5071
SWIDTH 648 0
DWIDTH 9 0
BBX 8 11 1 0
BITMAP
F0
40
40
40
40
7C
42
41
41
42
FC
ENDCHAR
STARTCHAR 13D0
ENCODING 5072
SWIDTH 720 0
DWIDTH 10 0
BBX 9 11 0 0
BITMAP
1E00
0800
0800
0800
0B80
CC80
8880
7800
0800
0800
1E00
ENDCHAR
STARTCHAR 13D1
ENCODING 5073
SWIDTH 864 0
DWIDTH 12 0
BBX 11 11 1 0
BITMAP
E1C0
9260
9420
9820
E040
2080
3800
2400
2400
2400
3800
ENDCHAR
STARTCHAR 13D2
ENCODING 5074
SWIDTH 720 0
DWIDTH 10 0
BBX 9 11 1 0
BITMAP
FE00
4300
4100
4100
4100
4E00
4400
4400
4200
4200
F780
ENDCHAR
STARTCHAR 13D3
ENCODING 5075
SWIDTH 648 0
DWIDTH 9 0
BBX 7 11 1 0
BITMAP
E0
40
40
40
40
4E
4A
4A
42
62
3C
ENDCHAR
STARTCHAR 13D4
ENCODING 5076
SWIDTH 1008 0
DWIDTH 14 0
BBX 14 11 0 0
BITMAP
C48C
4488
4698
6310
2310
2330
3320
1320
1560
14C0
08C0
ENDCHAR
STARTCHAR 13D5
ENCODING 5077
SWIDTH 720 0
DWIDTH 10 0
BBX 8 11 1 0
BITMAP
3C
44
83
C0
40
30
0C
06
03
86
7C
ENDCHAR
STARTCHAR 13D6
ENCODING 5078
SWIDTH 792 0
DWIDTH 11 0
BBX 10 11 0 0
BITMAP
FF80
8800
8800
0800
0800
0B80
0C40
0840
0840
04C0
0780
ENDCHAR
STARTCHAR 13D7
ENCODING 5079
SWIDTH 720 0
DWIDTH 10 0
BBX 9 11 0 0
BITMAP
0780
0100
0100
0100
0100
0300
0300
0500
0500
C900
7180
ENDCHAR
STARTCHAR 13D8
ENCODING 5080
SWIDTH 792 0
DWIDTH 11 0
BBX 10 11 0 0
BITMAP
1FC0
1100
2100
0100
0100
0100
0300
0300
0500
C900
7100
ENDCHAR
STARTCHAR 13D9
ENCODING 5081
SWIDTH 720 0
DWIDTH 10 0
BBX 10 11 0 0
BITMAP
F1C0
6080
2080
2100
3100
1100
1200
1200
0A00
0C00
0C00
ENDCHAR
STARTCHAR 13DA
ENCODING 5082
SWIDTH 648 0
DWIDTH 9 0
BBX 6 11 1 0
BITMAP
3C
44
84
C0
60
38
0C
04
84
84
78
ENDCHAR
STARTCHAR 13DB
ENCODING 5083
SWIDTH 1080 0
DWIDTH 15 0
BBX 13 11 1 0
BITMAP
3E70
6988
4988
8988
8838
8800
8800
8800
8800
C800
7000
ENDCHAR
STARTCHAR 13DC
ENCODING 5084
SWIDTH 792 0
DWIDTH 11 0
BBX 10 11 1 0
BITMAP
1C00
1200
2200
1600
0C00
3600
6180
92C0
9440
9240
E380
ENDCHAR
STARTCHAR 13DD
ENCODING 5085
SWIDTH 720 0
DWIDTH 10 0
BBX 8 11 1 0
BITMAP
1E
22
43
40
40
40
40
40
41
41
FF
ENDCHAR
STARTCHAR 13DE
ENCODING 5086
SWIDTH 648 0
DWIDTH 9 0
BBX 8 11 1 0
BITMAP
F0
40
40
40
40
40
40
40
41
41
FF
ENDCHAR
STARTCHAR 13DF
ENCODING 5087
SWIDTH 720 0
DWIDTH 10 0
BBX 8 11 1 0
BITMAP
3E
63
C1
80
80
80
80
80
C1
42
3C
ENDCHAR
STARTCHAR 13E0
ENCODING 5088
SWIDTH 864 0
DWIDTH 12 0
BBX 11 11 0 0
BITMAP
00E0
7040
4840
8840
4840
7FC0
0840
0840
0840
04C0
0780
ENDCHAR
STARTCHAR 13E1
ENCODING 5089
SWIDTH 936 0
DWIDTH 13 0
BBX 12 11 0 0
BITMAP
3CE0
2730
4310
E510
0480
0880
0880
0880
0880
0C80
0700
ENDCHAR
STARTCHAR 13E2
ENCODING 5090
SWIDTH 648 0
DWIDTH 9 0
BBX 8 11 1 0
BITMAP
FC
42
43
41
43
42
7C
40
40
40
F0
ENDCHAR
STARTCHAR 13E3
ENCODING 5091
SWIDTH 720 0
DWIDTH 10 0
BBX 9 11 1 0
BITMAP
3C00
6200
C100
8780
8000
8000
8000
8300
C100
6300
3E00
ENDCHAR
STARTCHAR 13E4
ENCODING 5092
SWIDTH 792 0
DWIDTH 11 0
BBX 11 11 0 0
BITMAP
FE60
8840
8840
0880
0880
0900
0900
0A00
0A00
0C00
0C00
ENDCHAR
STARTCHAR 13E5
ENCODING 5093
SWIDTH 936 0
DWIDTH 13 0
BBX 11 11 1 0
BITMAP
E000
4000
4000
4000
4FC0
5320
6320
4300
4300
4300
E780
ENDCHAR
STARTCHAR 13E6
ENCODING 5094
SWIDTH 792 0
DWIDTH 11 0
BBX 9 11 1 0
BITMAP
E380
4300
4200
4400
4800
5800
6400
6600
4200
4100
E380
ENDCHAR
STARTCHAR 13E7
ENCODING 5095
SWIDTH 576 0
DWIDTH 8 0
BBX 7 11 0 0
BITMAP
0E
04
04
04
04
3C
44
C4
C4
44
38
ENDCHAR
STARTCHAR 13E8
ENCODING 5096
SWIDTH 864 0
DWIDTH 12 0
BBX 10 11 1 0
BITMAP
3C80
63C0
C180
8000
8000
8000
8000
8000
C180
43C0
3D00
ENDCHAR
STARTCHAR 13E9
ENCODING 5097
SWIDTH 864 0
DWIDTH 12 0
BBX 11 11 1 0
BITMAP
3E00
6100
4300
8000
8000
8000
8380
8100
C120
4320
3CE0
ENDCHAR
STARTCHAR 13EA
ENCODING 5098
SWIDTH 1080 0
DWIDTH 15 0
BBX 13 11 1 0
BITMAP
1C30
1248
2248
2248
2248
3248
1628
9C30
8C10
8C20
73C0
ENDCHAR
STARTCHAR 13EB
ENCODING 5099
SWIDTH 792 0
DWIDTH 11 0
BBX 9 11 1 0
BITMAP
3E00
6300
C100
8080
F880
8880
8F80
8180
C100
6300
3E00
ENDCHAR
STARTCHAR 13EC
ENCODING 5100
SWIDTH 1080 0
DWIDTH 15 0
BBX 13 11 1 0
BITMAP
7070
C890
8C88
8C88
8CC8
8808
C808
5010
7030
3060
0F80
ENDCHAR
STARTCHAR 13ED
ENCODING 5101
SWIDTH 648 0
DWIDTH 9 0
BBX 7 11 1 0
BITMAP
38
44
42
42
42
62
1A
8E
84
8C
78
ENDCHAR
STARTCHAR 13EE
ENCODING 5102
SWIDTH 648 0
DWIDTH 9 0
BBX 7 11 1 0
BITMAP
3C
62
46
80
BC
C6
82
82
82
44
38
ENDCHAR
STARTCHAR 13EF
ENCODING 5103
SWIDTH 1080 0
DWIDTH 15 0
BBX 13 11 1 0
BITMAP
07C0
0830
0010
0008
0008
9DC8
8608
8208
8618
C710
79E0
ENDCHAR
STARTCHAR 13F0
ENCODING 5104
SWIDTH 792 0
DWIDTH 11 0
BBX 9 15 1 -4
BITMAP
0F00
1880
1080
1080
1100
1200
9180
9080
9080
5180
3F00
1000
1000
1000
1000
ENDCHAR
STARTCHAR 13F1
ENCODING 5105
SWIDTH 864 0
DWIDTH 12 0
BBX 10 11 1 0
BITMAP
1E00
0C00
0C00
0F00
1080
A0C0
4440
4C40
4840
8880
0700
ENDCHAR
STARTCHAR 13F2
ENCODING 5106
SWIDTH 792 0
DWIDTH 11 0
BBX 9 11 1 0
BITMAP
1E00
2300
4300
4200
4000
5E00
6200
4100
4100
4100
E780
ENDCHAR
STARTCHAR 13F3
ENCODING 5107
SWIDTH 792 0
DWIDTH 11 0
BBX 10 11 1 0
BITMAP
3C80
63C0
C180
8000
8000
8000
8380
8100
C100
4300
3D00
ENDCHAR
STARTCHAR 13F4
ENCODING 5108
SWIDTH 720 0
DWIDTH 10 0
BBX 8 11 1 0
BITMAP
FE
63
61
61
63
7C
63
61
61
63
FE
ENDCHAR
STARTCHAR 13F5
ENCODING 5109
SWIDTH 792 0
DWIDTH 11 0
BBX 9 11 1 0
BITMAP
0100
0E00
3000
6000
C000
8000
8380
8100
8100
4100
3E00
ENDCHAR
STARTCHAR 13F8
ENCODING 5112
SWIDTH 648 0
DWIDTH 9 0
BBX 8 11 0 -3
BITMAP
0E
11
11
16
93
51
71
3E
10
10
10
ENDCHAR
STARTCHAR 13F9
ENCODING 5113
SWIDTH 648 0
DWIDTH 9 0
BBX 9 8 0 0
BITMAP
1C00
0800
0F00
7180
2480
4880
C980
0700
ENDCHAR
STARTCHAR 13FA
ENCODING 5114
SWIDTH 648 0
DWIDTH 9 0
BBX 7 8 1 0
BITMAP
38
44
40
F8
C4
C4
C4
CE
ENDCHAR
STARTCHAR 13FB
ENCODING 5115
SWIDTH 648 0
DWIDTH 9 0
BBX 8 8 1 0
BITMAP
7B
C7
80
80
8E
84
CC
74
ENDCHAR
STARTCHAR 13FC
ENCODING 5116
SWIDTH 576 0
DWIDTH 8 0
BBX 6 8 1 0
BITMAP
FC
44
44
78
44
44
44
F8
ENDCHAR
STARTCHAR 13FD
ENCODING 5117
SWIDTH 648 0
DWIDTH 9 0
BBX 7 8 1 0
BITMAP
0C
30
40
80
8E
84
84
7C
ENDCHAR
STARTCHAR 1E80
ENCODING 7808
SWIDTH 936 0
DWIDTH 13 0
BBX 13 14 0 0
BITMAP
0400
0600
0300
0000
C218
4710
4510
4510
6D30
28A0
28A0
28A0
38E0
1040
ENDCHAR
STARTCHAR 1E81
ENCODING 7809
SWIDTH 792 0
DWIDTH 11 0
BBX 11 12 0 0
BITMAP
0800
0C00
0400
0000
C460
4A40
4A40
4A40
6AC0
3180
3180
3180
ENDCHAR
STARTCHAR 1E82
ENCODING 7810
SWIDTH 936 0
DWIDTH 13 0
BBX 13 14 0 0
BITMAP
0100
0300
0600
0000
C218
4710
4510
4510
6D30
28A0
28A0
28A0
38E0
1040
ENDCHAR
STARTCHAR 1E83
ENCODING 7811
SWIDTH 792 0
DWIDTH 11 0
BBX 11 12 0 0
BITMAP
0200
0600
0C00
0000
C460
4A40
4A40
4A40
6AC0
3180
3180
3180
ENDCHAR
STARTCHAR 1E84
ENCODING 7812
SWIDTH 936 0
DWIDTH 13 0
BBX 13 13 0 0
BITMAP
0500
0000
0000
C218
4710
4510
4510
6D30
28A0
28A0
28A0
38E0
1040
ENDCHAR
STARTCHAR 1E85
ENCODING 7813
SWIDTH 792 0
DWIDTH 11 0
BBX 11 11 0 0
BITMAP
0A00
0000
0000
C460
4A40
4A40
4A40
6AC0
3180
3180
3180
ENDCHAR
STARTCHAR 1E9E
ENCODING 7838
SWIDTH 720 0
DWIDTH 10 0
BBX 8 10 1 0
BITMAP
3C
42
C2
C4
CE
C3
C1
C1
E1
FE
ENDCHAR
STARTCHAR 1EF2
ENCODING 7922
SWIDTH 576 0
DWIDTH 8 0
BBX 8 14 0 0
BITMAP
30
10
08
00
C3
42
66
24
38
18
18
18
18
18
ENDCHAR
STARTCHAR 1EF3
ENCODING 7923
SWIDTH 504 0
DWIDTH 7 0
BBX 7 16 0 -4
BITMAP
20
30
18
00
82
46
44
64
2C
28
28
18
10
10
20
E0
ENDCHAR
STARTCHAR 2013
ENCODING 8211
SWIDTH 504 0
DWIDTH 7 0
BBX 5 1 1 4
BITMAP
F8
ENDCHAR
STARTCHAR 2014
ENCODING 8212
SWIDTH 1008 0
DWIDTH 14 0
BBX 12 1 1 4
BITMAP
FFF0
ENDCHAR
STARTCHAR 2018
ENCODING 8216
SWIDTH 144 0
DWIDTH 2 0
BBX 2 3 0 7
BITMAP
40
40
C0
ENDCHAR
STARTCHAR 2019
ENCODING 8217
SWIDTH 144 0
DWIDTH 2 0
BBX 2 3 0 7
BITMAP
40
40
80
ENDCHAR
STARTCHAR 201A
ENCODING 8218
SWIDTH 288 0
DWIDTH 4 0
BBX 3 3 0 -1
BITMAP
60
40
C0
ENDCHAR
STARTCHAR 201C
ENCODING 8220
SWIDTH 360 0
DWIDTH 5 0
BBX 5 3 0 7
BITMAP
48
50
D0
ENDCHAR
STARTCHAR 201D
ENCODING 8221
SWIDTH 360 0
DWIDTH 5 0
BBX 5 3 0 7
BITMAP
58
50
90
ENDCHAR
STARTCHAR 201E
ENCODING 8222
SWIDTH 432 0
DWIDTH 6 0
BBX 5 3 0 -1
BITMAP
68
58
D0
ENDCHAR
STARTCHAR 2022
ENCODING 8226
SWIDTH 360 0
DWIDTH 5 0
BBX 3 4 1 4
BITMAP
E0
E0
E0
E0
ENDCHAR
STARTCHAR 2026
ENCODING 8230
SWIDTH 792 0
DWIDTH 11 0
BBX 9 2 1 0
BITMAP
C980
C980
ENDCHAR
STARTCHAR 2039
ENCODING 8249
SWIDTH 288 0
DWIDTH 4 0
BBX 3 6 1 1
BITMAP
40
60
80
80
C0
60
ENDCHAR
STARTCHAR 203A
ENCODING 8250
SWIDTH 288 0
DWIDTH 4 0
BBX 3 6 1 1
BITMAP
80
80
40
60
40
80
ENDCHAR
STARTCHAR 20AC
ENCODING 8364
SWIDTH 576 0
DWIDTH 8 0
BBX 8 10 0 0
BITMAP
1F
31
20
FC
60
FC
20
20
31
1F
ENDCHAR
STARTCHAR 2122
ENCODING 8482
SWIDTH 792 0
DWIDTH 11 0
BBX 10 5 0 5
BITMAP
F4C0
2CC0
2AC0
2B40
2940
ENDCHAR
STARTCHAR 2212
ENCODING 8722
SWIDTH 360 0
DWIDTH 5 0
BBX 3 1 1 4
BITMAP
E0
ENDCHAR
STARTCHAR AB70
ENCODING 43888
SWIDTH 648 0
DWIDTH 9 0
BBX 7 8 1 0
BITMAP
F8
44
42
42
42
46
44
F8
ENDCHAR
STARTCHAR AB71
ENCODING 43889
SWIDTH 576 0
DWIDTH 8 0
BBX 7 8 1 0
BITMAP
F8
44
44
4C
70
48
44
E6
ENDCHAR
STARTCHAR AB72
ENCODING 43890
SWIDTH 576 0
DWIDTH 8 0
BBX 7 8 0 0
BITMAP
FE
92
10
10
10
10
10
38
ENDCHAR
STARTCHAR AB73
ENCODING 43891
SWIDTH 720 0
DWIDTH 10 0
BBX 8 8 1 0
BITMAP
1C
08
1C
63
91
91
91
E6
ENDCHAR
STARTCHAR AB74
ENCODING 43892
SWIDTH 864 0
DWIDTH 12 0
BBX 11 8 1 0
BITMAP
79C0
CD40
8420
8640
85C0
8400
C400
7800
ENDCHAR
STARTCHAR AB75
ENCODING 43893
SWIDTH 288 0
DWIDTH 4 0
BBX 3 8 1 0
BITMAP
C0
00
00
C0
C0
C0
C0
E0
ENDCHAR
STARTCHAR AB76
ENCODING 43894
SWIDTH 504 0
DWIDTH 7 0
BBX 6 8 1 0
BITMAP
78
88
40
FC
18
88
88
70
ENDCHAR
STARTCHAR AB77
ENCODING 43895
SWIDTH 648 0
DWIDTH 9 0
BBX 7 8 1 0
BITMAP
7C
46
E2
92
92
A2
C6
78
ENDCHAR
STARTCHAR AB78
ENCODING 43896
SWIDTH 576 0
DWIDTH 8 0
BBX 7 8 1 0
BITMAP
E0
40
50
72
4C
40
40
E0
ENDCHAR
STARTCHAR AB79
ENCODING 43897
SWIDTH 576 0
DWIDTH 8 0
BBX 8 8 0 0
BITMAP
E7
62
24
34
14
18
58
70
ENDCHAR
STARTCHAR AB7A
ENCODING 43898
SWIDTH 576 0
DWIDTH 8 0
BBX 8 8 0 0
BITMAP
18
18
14
24
24
3E
42
E7
ENDCHAR
STARTCHAR AB7B
ENCODING 43899
SWIDTH 504 0
DWIDTH 7 0
BBX 6 8 0 0
BITMAP
1C
08
08
08
08
08
C8
70
ENDCHAR
STARTCHAR AB7C
ENCODING 43900
SWIDTH 576 0
DWIDTH 8 0
BBX 6 8 1 0
BITMAP
FC
44
40
70
50
40
44
FC
ENDCHAR
STARTCHAR AB7D
ENCODING 43901
SWIDTH 792 0
DWIDTH 11 0
BBX 11 8 0 0
BITMAP
0700
0200
72A0
5640
8AC0
5280
7300
0300
ENDCHAR
STARTCHAR AB7E
ENCODING 43902
SWIDTH 504 0
DWIDTH 7 0
BBX 6 9 1 0
BITMAP
F0
08
0C
EC
48
70
40
40
E0
ENDCHAR
STARTCHAR AB7F
ENCODING 43903
SWIDTH 648 0
DWIDTH 9 0
BBX 8 8 0 0
BITMAP
0E
13
11
11
3F
21
21
E6
ENDCHAR
STARTCHAR AB80
ENCODING 43904
SWIDTH 504 0
DWIDTH 7 0
BBX 5 8 1 0
BITMAP
E0
40
48
78
48
40
40
E0
ENDCHAR
STARTCHAR AB81
ENCODING 43905
SWIDTH 504 0
DWIDTH 7 0
BBX 6 8 1 0
BITMAP
FC
44
40
40
40
40
40
E0
ENDCHAR
STARTCHAR AB82
ENCODING 43906
SWIDTH 720 0
DWIDTH 10 0
BBX 10 8 0 0
BITMAP
1C00
1200
3200
1200
1400
9DC0
4880
7700
ENDCHAR
STARTCHAR AB83
ENCODING 43907
SWIDTH 864 0
DWIDTH 12 0
BBX 12 8 0 0
BITMAP
E670
4620
6640
2640
2A40
2980
1980
1180
ENDCHAR
STARTCHAR AB84
ENCODING 43908
SWIDTH 648 0
DWIDTH 9 0
BBX 7 8 1 0
BITMAP
0E
12
12
F0
90
90
90
E0
ENDCHAR
STARTCHAR AB85
ENCODING 43909
SWIDTH 576 0
DWIDTH 8 0
BBX 6 8 1 0
BITMAP
38
44
44
C4
D8
C0
C0
C0
ENDCHAR
STARTCHAR AB86
ENCODING 43910
SWIDTH 576 0
DWIDTH 8 0
BBX 6 8 1 0
BITMAP
78
C4
84
90
9C
94
C4
78
ENDCHAR
STARTCHAR AB87
ENCODING 43911
SWIDTH 792 0
DWIDTH 11 0
BBX 9 8 1 0
BITMAP
E180
6280
6380
7380
5580
5580
5D80
C980
ENDCHAR
STARTCHAR AB88
ENCODING 43912
SWIDTH 648 0
DWIDTH 9 0
BBX 7 8 1 0
BITMAP
3C
44
26
86
C6
BE
06
06
ENDCHAR
STARTCHAR AB89
ENCODING 43913
SWIDTH 792 0
DWIDTH 11 0
BBX 11 8 0 0
BITMAP
1CC0
0B20
0E20
7840
9C00
2400
2400
1800
ENDCHAR
STARTCHAR AB8A
ENCODING 43914
SWIDTH 864 0
DWIDTH 12 0
BBX 9 8 1 0
BITMAP
7880
C480
8680
8780
8680
8480
C480
7880
ENDCHAR
STARTCHAR AB8B
ENCODING 43915
SWIDTH 648 0
DWIDTH 9 0
BBX 8 8 1 0
BITMAP
E7
42
42
7E
42
42
42
E7
ENDCHAR
STARTCHAR AB8C
ENCODING 43916
SWIDTH 648 0
DWIDTH 9 0
BBX 9 8 0 0
BITMAP
0C00
0C00
0E00
F100
0080
1080
1100
0E00
ENDCHAR
STARTCHAR AB8D
ENCODING 43917
SWIDTH 648 0
DWIDTH 9 0
BBX 9 8 0 0
BITMAP
4380
2200
2200
1400
1C00
EC00
4800
7000
ENDCHAR
STARTCHAR AB8E
ENCODING 43918
SWIDTH 648 0
DWIDTH 9 0
BBX 7 8 1 0
BITMAP
78
C4
82
FE
82
86
C4
78
ENDCHAR
STARTCHAR AB8F
ENCODING 43919
SWIDTH 648 0
DWIDTH 9 0
BBX 8 9 0 -1
BITMAP
20
F8
20
20
27
22
22
1E
02
ENDCHAR
STARTCHAR AB90
ENCODING 43920
SWIDTH 648 0
DWIDTH 9 0
BBX 7 8 1 0
BITMAP
78
C4
80
80
8E
84
C4
7C
ENDCHAR
STARTCHAR AB91
ENCODING 43921
SWIDTH 648 0
DWIDTH 9 0
BBX 9 8 0 0
BITMAP
0E00
1300
1100
1100
3100
2100
2100
E380
ENDCHAR
STARTCHAR AB92
ENCODING 43922
SWIDTH 648 0
DWIDTH 9 0
BBX 7 8 1 0
BITMAP
E0
40
78
44
44
44
44
EE
ENDCHAR
STARTCHAR AB93
ENCODING 43923
SWIDTH 504 0
DWIDTH 7 0
BBX 5 8 1 0
BITMAP
F8
88
10
20
20
40
88
F8
ENDCHAR
STARTCHAR AB94
ENCODING 43924
SWIDTH 576 0
DWIDTH 8 0
BBX 8 8 0 0
BITMAP
3C
44
E2
E2
46
3A
02
07
ENDCHAR
STARTCHAR AB95
ENCODING 43925
SWIDTH 864 0
DWIDTH 12 0
BBX 11 8 1 0
BITMAP
7800
CC00
8480
87A0
84C0
8400
C400
7800
ENDCHAR
STARTCHAR AB96
ENCODING 43926
SWIDTH 576 0
DWIDTH 8 0
BBX 7 8 1 0
BITMAP
FC
94
10
10
10
10
92
FE
ENDCHAR
STARTCHAR AB97
ENCODING 43927
SWIDTH 792 0
DWIDTH 11 0
BBX 10 8 1 0
BITMAP
0F00
1880
00C0
0040
8840
8840
9880
F700
ENDCHAR
STARTCHAR AB98
ENCODING 43928
SWIDTH 720 0
DWIDTH 10 0
BBX 8 8 1 0
BITMAP
E7
99
99
25
24
24
24
38
ENDCHAR
STARTCHAR AB99
ENCODING 43929
SWIDTH 1008 0
DWIDTH 14 0
BBX 14 8 0 0
BITMAP
085C
08A4
08B4
6C98
AD00
8D00
7500
0200
ENDCHAR
STARTCHAR AB9A
ENCODING 43930
SWIDTH 864 0
DWIDTH 12 0
BBX 10 8 1 0
BITMAP
0F80
08C0
0040
8640
8A40
8840
98C0
F780
ENDCHAR
STARTCHAR AB9B
ENCODING 43931
SWIDTH 504 0
DWIDTH 7 0
BBX 6 8 1 0
BITMAP
78
80
80
70
80
88
84
78
ENDCHAR
STARTCHAR AB9C
ENCODING 43932
SWIDTH 648 0
DWIDTH 9 0
BBX 7 8 1 0
BITMAP
C6
C6
C6
FE
C6
C6
44
7C
ENDCHAR
STARTCHAR AB9D
ENCODING 43933
SWIDTH 864 0
DWIDTH 12 0
BBX 10 8 1 0
BITMAP
1F00
2080
0040
E640
9640
9A40
9240
E380
ENDCHAR
STARTCHAR AB9E
ENCODING 43934
SWIDTH 504 0
DWIDTH 7 0
BBX 6 8 0 0
BITMAP
08
18
28
48
48
FC
08
1C
ENDCHAR
STARTCHAR AB9F
ENCODING 43935
SWIDTH 504 0
DWIDTH 7 0
BBX 6 8 1 0
BITMAP
E0
40
40
78
44
44
4C
F8
ENDCHAR
STARTCHAR ABA0
ENCODING 43936
SWIDTH 576 0
DWIDTH 8 0
BBX 7 8 0 0
BITMAP
38
10
10
DE
72
10
10
38
ENDCHAR
STARTCHAR ABA1
ENCODING 43937
SWIDTH 720 0
DWIDTH 10 0
BBX 9 8 0 0
BITMAP
7380
9480
7880
1100
3800
2400
2400
1800
ENDCHAR
STARTCHAR ABA2
ENCODING 43938
SWIDTH 576 0
DWIDTH 8 0
BBX 7 8 1 0
BITMAP
F8
44
44
54
58
48
48
EE
ENDCHAR
STARTCHAR ABA3
ENCODING 43939
SWIDTH 504 0
DWIDTH 7 0
BBX 6 8 1 0
BITMAP
C0
C0
C0
D8
D4
54
48
78
ENDCHAR
STARTCHAR ABA4
ENCODING 43940
SWIDTH 792 0
DWIDTH 11 0
BBX 11 8 0 0
BITMAP
CB20
4A40
4640
6440
2480
2A80
3B00
1B00
ENDCHAR
STARTCHAR ABA5
ENCODING 43941
SWIDTH 576 0
DWIDTH 8 0
BBX 6 8 1 0
BITMAP
78
8C
80
60
18
0C
88
F0
ENDCHAR
STARTCHAR ABA6
ENCODING 43942
SWIDTH 648 0
DWIDTH 9 0
BBX 8 8 0 0
BITMAP
FE
90
10
16
19
11
19
0E
ENDCHAR
STARTCHAR ABA7
ENCODING 43943
SWIDTH 576 0
DWIDTH 8 0
BBX 7 8 0 0
BITMAP
0E
04
04
04
04
0C
D4
E6
ENDCHAR
STARTCHAR ABA8
ENCODING 43944
SWIDTH 576 0
DWIDTH 8 0
BBX 8 8 0 0
BITMAP
3F
26
06
06
06
0E
D6
E6
ENDCHAR
STARTCHAR ABA9
ENCODING 43945
SWIDTH 576 0
DWIDTH 8 0
BBX 8 8 0 0
BITMAP
E7
42
62
24
24
34
18
18
ENDCHAR
STARTCHAR ABAA
ENCODING 43946
SWIDTH 504 0
DWIDTH 7 0
BBX 5 8 1 0
BITMAP
78
88
80
60
10
08
88
F0
ENDCHAR
STARTCHAR ABAB
ENCODING 43947
SWIDTH 864 0
DWIDTH 12 0
BBX 11 8 1 0
BITMAP
39C0
5640
9260
90C0
9000
9000
9000
6000
ENDCHAR
STARTCHAR ABAC
ENCODING 43948
SWIDTH 648 0
DWIDTH 9 0
BBX 9 8 0 0
BITMAP
1C00
1600
1400
1C00
2300
5480
9480
7300
ENDCHAR
STARTCHAR ABAD
ENCODING 43949
SWIDTH 576 0
DWIDTH 8 0
BBX 6 8 1 0
BITMAP
38
44
40
40
40
40
44
FC
ENDCHAR
STARTCHAR ABAE
ENCODING 43950
SWIDTH 504 0
DWIDTH 7 0
BBX 6 8 1 0
BITMAP
E0
40
40
40
40
40
44
FC
ENDCHAR
STARTCHAR ABAF
ENCODING 43951
SWIDTH 576 0
DWIDTH 8 0
BBX 6 8 1 0
BITMAP
78
C4
80
80
80
80
C4
78
ENDCHAR
STARTCHAR ABB0
ENCODING 43952
SWIDTH 720 0
DWIDTH 10 0
BBX 9 8 0 0
BITMAP
7380
9100
D100
7F00
1100
1100
0900
0E00
ENDCHAR
STARTCHAR ABB1
ENCODING 43953
SWIDTH 720 0
DWIDTH 10 0
BBX 10 8 0 0
BITMAP
3B80
44C0
EA40
0A00
1300
1100
1B00
0E00
ENDCHAR
STARTCHAR ABB2
ENCODING 43954
SWIDTH 504 0
DWIDTH 7 0
BBX 6 8 1 0
BITMAP
F8
44
44
4C
78
40
40
E0
ENDCHAR
STARTCHAR ABB3
ENCODING 43955
SWIDTH 576 0
DWIDTH 8 0
BBX 7 8 1 0
BITMAP
78
C4
8E
80
80
84
C4
78
ENDCHAR
STARTCHAR ABB4
ENCODING 43956
SWIDTH 648 0
DWIDTH 9 0
BBX 9 8 0 0
BITMAP
FD80
9100
1300
1200
1600
1400
1C00
1800
ENDCHAR
STARTCHAR ABB5
ENCODING 43957
SWIDTH 720 0
DWIDTH 10 0
BBX 9 8 1 0
BITMAP
E000
4000
4000
5F00
6480
4480
4400
EE00
ENDCHAR
STARTCHAR ABB6
ENCODING 43958
SWIDTH 648 0
DWIDTH 9 0
BBX 7 8 1 0
BITMAP
EE
44
48
50
70
48
44
EE
ENDCHAR
STARTCHAR ABB7
ENCODING 43959
SWIDTH 504 0
DWIDTH 7 0
BBX 6 8 0 0
BITMAP
1C
08
08
78
48
88
48
70
ENDCHAR
STARTCHAR ABB8
ENCODING 43960
SWIDTH 648 0
DWIDTH 9 0
BBX 8 8 1 0
BITMAP
7B
C7
80
80
80
80
C7
7B
ENDCHAR
STARTCHAR ABB9
ENCODING 43961
SWIDTH 720 0
DWIDTH 10 0
BBX 9 8 1 0
BITMAP
7800
C400
8400
8000
8E00
8400
C480
7B00
ENDCHAR
STARTCHAR ABBA
ENCODING 43962
SWIDTH 864 0
DWIDTH 12 0
BBX 10 8 1 0
BITMAP
39C0
2D40
2540
2540
2940
B8C0
9080
EF00
ENDCHAR
STARTCHAR ABBB
ENCODING 43963
SWIDTH 648 0
DWIDTH 9 0
BBX 7 8 1 0
BITMAP
78
C4
82
F2
9E
86
C4
78
ENDCHAR
STARTCHAR ABBC
ENCODING 43964
SWIDTH 864 0
DWIDTH 12 0
BBX 10 8 1 0
BITMAP
7380
9240
9240
9240
9040
E0C0
6180
3E00
ENDCHAR
STARTCHAR ABBD
ENCODING 43965
SWIDTH 504 0
DWIDTH 7 0
BBX 5 8 1 0
BITMAP
70
C8
88
48
28
98
98
F0
ENDCHAR
STARTCHAR ABBE
ENCODING 43966
SWIDTH 504 0
DWIDTH 7 0
BBX 5 8 1 0
BITMAP
78
C8
80
F0
88
88
88
70
ENDCHAR
STARTCHAR ABBF
ENCODING 43967
SWIDTH 864 0
DWIDTH 12 0
BBX 10 8 1 0
BITMAP
1F00
1080
0040
B640
8840
8840
8CC0
7780
ENDCHAR
ENDFONT
